/* XPM */
static char *_7adfaa5afff4401d632f97f8eccd231xXWznw9JUZ1HMk3I[] = {
/* columns rows colors chars-per-pixel */
"50 50 188 2 ",
"   c None",
".  c #34220C",
"X  c #3C270E",
"o  c #3A2610",
"O  c #3F2D13",
"+  c #422A0F",
"@  c #422D14",
"#  c #4C2E12",
"$  c #453316",
"%  c #4A3316",
"&  c #4F3B1B",
"*  c #5A3717",
"=  c #513718",
"-  c #553C1A",
";  c #5A3D1B",
":  c #553716",
">  c #56411D",
",  c #5B421D",
"<  c #63441D",
"1  c #69471C",
"2  c #6D4A1D",
"3  c #724D1E",
"4  c #76501F",
"5  c #5E4521",
"6  c #5E4820",
"7  c #644B22",
"8  c #6C4E23",
"9  c #6E5124",
"0  c #725224",
"q  c #7C5521",
"w  c #775927",
"e  c #795926",
"r  c #775828",
"t  c #795A2A",
"y  c #815722",
"u  c #845B24",
"i  c #885E26",
"p  c #815F2C",
"a  c #8C6227",
"s  c #84632B",
"d  c #8B6529",
"f  c #8D6A2F",
"g  c #946C2C",
"h  c #996E2C",
"j  c #93672A",
"k  c #9D732D",
"l  c #8F6C31",
"z  c #856530",
"x  c #916E31",
"c  c #947233",
"v  c #997434",
"b  c #A2752E",
"n  c #A5792F",
"m  c #A97D2F",
"M  c #A47A32",
"N  c #AA7D31",
"B  c #A47E39",
"V  c #A47734",
"C  c #9D8339",
"Z  c #AE8132",
"A  c #AD823B",
"S  c #A7843D",
"D  c #B38434",
"F  c #B78836",
"G  c #BC8C36",
"H  c #B68D3F",
"J  c #BD8F3A",
"K  c #BF9037",
"L  c #BD903A",
"P  c #C18E37",
"I  c #C29037",
"U  c #C4933A",
"Y  c #C9963B",
"T  c #C7983C",
"R  c #CC9A3C",
"E  c #D19D3C",
"W  c #D6A23E",
"Q  c #DAA53F",
"!  c #9A8444",
"~  c #A68645",
"^  c #B58E43",
"/  c #AE9145",
"(  c #BD9446",
")  c #B79847",
"_  c #B59649",
"`  c #BD9E4D",
"'  c #B89B48",
"]  c #A68C56",
"[  c #A79160",
"{  c #B3A26F",
"}  c #C49543",
"|  c #CE9C41",
" . c #C49E48",
".. c #CC9F4D",
"X. c #C59B42",
"o. c #D19E42",
"O. c #C9A64D",
"+. c #C5A04C",
"@. c #D3A344",
"#. c #DAA643",
"$. c #D7A843",
"%. c #DDAA45",
"&. c #D2A649",
"*. c #DBA648",
"=. c #D4AB4C",
"-. c #DAAD4B",
";. c #D8B147",
":. c #D7B14E",
">. c #DAB24D",
",. c #DEBC4E",
"<. c #C5A651",
"1. c #C7A859",
"2. c #D6AE51",
"3. c #D8AF50",
"4. c #D7B053",
"5. c #DCB352",
"6. c #DFBA56",
"7. c #D4B65D",
"8. c #DBB559",
"9. c #DCBA5C",
"0. c #E1AE45",
"q. c #E5B146",
"w. c #E6B449",
"e. c #E8B74A",
"r. c #E6BA4D",
"t. c #E8BB4C",
"y. c #E1B653",
"u. c #E3BA51",
"i. c #E1BF58",
"p. c #C0AF6A",
"a. c #DEBD64",
"s. c #DFC45C",
"d. c #EDC84E",
"f. c #E5C54E",
"g. c #E1C255",
"h. c #E6C856",
"j. c #EACB54",
"k. c #E9CB5B",
"l. c #E1CA5D",
"z. c #F1CE53",
"x. c #EED65C",
"c. c #F2D55A",
"v. c #F2D957",
"b. c #F6E55C",
"n. c #E0CA63",
"m. c #EFDD66",
"M. c #E9D76E",
"N. c #E7D86E",
"B. c #E9D968",
"V. c #EAD564",
"C. c #F3D663",
"Z. c #F1D26B",
"A. c #F1DE68",
"S. c #E3D472",
"D. c #F0D170",
"F. c #F5E56C",
"G. c #F9E66B",
"H. c #F8EC6A",
"J. c #FDF46D",
"K. c #EEE271",
"L. c #FEFA77",
"P. c #FCF67F",
"I. c #FEFB7D",
"U. c #FBF475",
"Y. c #E7D894",
"T. c #ECE08E",
"R. c #F7EE84",
"E. c #F0E58D",
"W. c #F9F485",
"Q. c #FDF68C",
"!. c #FEFA8B",
"~. c #FAF584",
"^. c #FFFD93",
"/. c #FEFC9F",
"(. c #F4ECA4",
"). c #FFFCA5",
"_. c #FEFDAE",
"`. c #FEFDAA",
"'. c #FDFBB1",
"]. c #F7F2BD",
"[. c #FDFABC",
"{. c #FFFDC3",
"}. c #FFFDC6",
"|. c #FFFDC9",
" X c #FFFCCD",
".X c #FFFED6",
"XX c #FFFCD1",
"oX c #FFFED8",
/* pixels */
"                                                                                                    ",
"                                                                                                    ",
"                                                                                                    ",
"                                    3.=.=.-.:.,.f.d.d.j.k.                                          ",
"                                | R | T R R Y R 5.s.c.C.C.C.C.                                      ",
"                            } o.| | R X.T R T T U T l.V.G.G.G.G.F.                                  ",
"                          } @.o.| | T R T T T T T U U l.B.J.J.J.J.H.                                ",
"                        ..*.@.| | R T T T T T U U U U T n.K.I.~.I.L.U.                              ",
"                      ..*.#.o.E X.2.Y.(.(.Y.F U U K I U U N.R.^.^.^.~.~.                            ",
"                      %.*.@.o.@.E.Y.^ N M h a a F U U U U T N.`.'._.).).                            ",
"                    *.0.#.#.} ..^ H } } T J F M u M U U U L 2.S.|.|.{.[.'.                          ",
"                    q.%.#.R 3 k } o.o.o.X.R T L Z a n U U U U 7.].oX.XXX|.[.                        ",
"                  -.0.0.#.2 d | *.*.@.o.E R | R U D i F L K U X.7.oXoXXX X}.                        ",
"                  w.w.0.k 4 P #.0.*.^ p.{ [ ] R R U D y U U P J  .].}.}.{.[.'.                      ",
"                2.w.0.0.3 h #.0.0.0.N ; : e a R E Y P N h J K I ( 1._._.`.).).                      ",
"                q.w.q.N 0 Y *.0.o.0.N < - a g R E R Y J j U K L I B Q.^.!.~.~.R.                    ",
"                e.q.e.4 a Q Q Q 0.0.N 1 , a h R R R Y I D k I K K k a.D.D.Z.Z.Z.                    ",
"                e.q.q.e Z Q Q Q E E N 1 < j k R E R E I I j K K J b v 2.8.8.4.3.                    ",
"              4.e.q.T 4 R Q Q Q Q E D 2 < j n E R R R Y I m F K G D 8 ( ( } ( }                     ",
"              5.q.q.n e Q Q Q Q E E N 2 < k n R R R R Y I D b K J J ; S B V B B ~                   ",
"              w.e.q.k a Q Q Q Q Q E N 2 1 k m R Y R E Y Y P j I G G = f x g x g x                   ",
"              e.q.q.j b #.%.#.Q E E N 3 2 k m R R Y E Y Y I b P G G - 2 s s s s s                   ",
"              w.q.q.h Z ;.%.#.#.Q E N 3 3 k Z R R R E Y R I D G G G 9 = r r t w w                   ",
"              w.q.q.k D %.:.-.=.#.o.N 3 3 k Z R E R Y Y R I F F J J h , 0 0 9 9 0                   ",
"              e.w.q.k F -.-.:.-.-.-.m 3 3 k Z R R E Y Y Y I G D J J k O 5 5 6 5 6                   ",
"              w.w.q.M D -.:.2.2.=.=.m 3 3 k Z @.E Y E Y Y Y P D J I b . 8 7 7 7 6                   ",
"              q.q.q.D m -.5.2.2.2.2.m 3 3 k Z E E E E R Y Y P D U U N o t t t 9 9                   ",
"              >.e.w.G b -.-.=.2.2.2.n 4 3 k Z W E E E R R R I G U U N o w 9 9 8 7                   ",
"              -.w.q.R h -.5.2.2.2.2.M 4 4 k Z =.*.o.o.X.E R U U T Y V o , , > > 5                   ",
"              O.e.e.$.b @.:.2.4.2.2.n 4 4 k D =.&.=.@.@.E R Y T R R x @ & & & & &                   ",
"                e.r.w.T Y :.2.2.4.2.m 4 4 k Z =.&.=.=.&.&.o.Y | R | w $ $ $ $ $ $                   ",
"                r.r.r.q.F >.4.4.=.2.N q 4 v Z =.=.&.&.&.*.o.U | o.R , O O O O O $                   ",
"                w.u.r.r.F -.5.=.4.5.m q 4 n D &.2.=.=.=.=.&.U @.| X.@ % % % % % &                   ",
"                O.u.r.r.5.R 5.5.3.4.D 4 q n D 2.&.=.O.=.&.&.@.@.@.@.X , = = - =                     ",
"                  r.r.u.c.T :.5.5.2.D y y n D =.=.=.=.=.=.&.&.&.*.L . < 7 < 7 7                     ",
"                  >.u.u.k.g.R >.5.=.G u y N G =.2.=.2.=.&.;.=.=.&.8 @ - - - = -                     ",
"                    w.r.y.H.@.-.=.5.T b F U U 3.=.2.-.=.&.=.=.=.=.+ * ; ; ; ; 5                     ",
"                    5.6.>.g.H.@.5.5.4.x.v.c.z.3.4.=.&.O.f.=.=.2. .# 7 1 < 7 1                       ",
"                    ` 5.5.5.A.G.$.2.3.=.-.3.2.=.:.=.=.f.:.=.4.4.7 1 9 9 9 8 9                       ",
"                      =.5.5.5.F.G.#.-.2.-.2.2.-.&.&.g.:.:.4.4.=.# e w w w w                         ",
"                        5.5.5.5.m.P.u.#.=.&.&.O.@.v.4.2.4.8.2.< 0 z s s z z                         ",
"                        ) 5.5.y.5.i.~.~.A.h.j.b.x.5.4.8.9.8.~ = c x c l l                           ",
"                           .6.5.6.5.5.5.6.g.y.5.5.4.8.8.9.2.* c c c x l                             ",
"                            ' y.5.y.y.5.5.y.6.6.8.8.9.9.7.# r s s s s                               ",
"                              / 6.5.y.y.y.8.6.9.9.9.9.1.# t v c c c                                 ",
"                                   .6.6.i.i.8.9.9.a.x - B S S B ~                                   ",
"                                    ! S _ <.<._ c 0 x ( ) _                                         ",
"                                                                                                    ",
"                                                                                                    ",
"                                                                                                    "
};
