/* XPM */
static char *result[] = {
/* columns rows colors chars-per-pixel */
"50 50 188 2 ",
"   c #282935",
".  c #292936",
"X  c #292C38",
"o  c #2B2C38",
"O  c #2B303C",
"+  c #2B323F",
"@  c #2B333F",
"#  c #2C333F",
"$  c #2D333F",
"%  c #2E333F",
"&  c #31313D",
"*  c #30343F",
"=  c #31343F",
"-  c #313440",
";  c #323440",
":  c #333440",
">  c #333540",
",  c #353540",
"<  c #363540",
"1  c #373540",
"2  c #373640",
"3  c #383640",
"4  c #393640",
"5  c #393641",
"6  c #3A3641",
"7  c #3B3641",
"8  c #3C3741",
"9  c #3E3741",
"0  c #3F3741",
"q  c #393943",
"w  c #3F3841",
"e  c #3F3F49",
"r  c #403841",
"t  c #413842",
"y  c #443942",
"u  c #403A44",
"i  c #483A43",
"p  c #4B3A43",
"a  c #4C3B43",
"s  c #4E3B43",
"d  c #413F48",
"f  c #513C44",
"g  c #523C44",
"h  c #543D44",
"j  c #553D44",
"k  c #5A3E45",
"l  c #5E3F46",
"z  c #5F3F46",
"x  c #643F45",
"c  c #42414B",
"v  c #42424B",
"b  c #515058",
"n  c #644046",
"m  c #654046",
"M  c #654146",
"N  c #654147",
"B  c #664147",
"V  c #674147",
"C  c #684147",
"Z  c #694247",
"A  c #6B4247",
"S  c #6C4247",
"D  c #6D4247",
"F  c #66474D",
"G  c #6F4348",
"H  c #704348",
"J  c #714348",
"K  c #714448",
"L  c #724448",
"P  c #734448",
"I  c #754449",
"U  c #764549",
"Y  c #774549",
"T  c #7A4649",
"R  c #7B4649",
"E  c #7D4548",
"W  c #7D464A",
"Q  c #7E474A",
"!  c #6C5E63",
"~  c #6C696E",
"^  c #706F74",
"/  c #717074",
"(  c #727074",
")  c #717276",
"_  c #7D7A7D",
"`  c #80474A",
"'  c #81474A",
"]  c #88494B",
"[  c #8C4A4C",
"{  c #8E4A4C",
"}  c #904B4C",
"|  c #934C4D",
" . c #954C4D",
".. c #964C4D",
"X. c #994D4D",
"o. c #9C4E4E",
"O. c #9D4E4E",
"+. c #82585B",
"@. c #A04F4E",
"#. c #A14F4E",
"$. c #AD4E4D",
"%. c #A5504F",
"&. c #A8514F",
"*. c #AE514F",
"=. c #A95150",
"-. c #AD5250",
";. c #AE5250",
":. c #AF5250",
">. c #B35351",
",. c #B45451",
"<. c #B55451",
"1. c #B65451",
"2. c #B75451",
"3. c #B85552",
"4. c #B95552",
"5. c #BA5552",
"6. c #BB5552",
"7. c #BC5652",
"8. c #BD5652",
"9. c #BE5652",
"0. c #8B7C7E",
"q. c #B36360",
"w. c #C8524D",
"e. c #C05450",
"r. c #C05451",
"t. c #C15753",
"y. c #C25753",
"u. c #C35753",
"i. c #C45753",
"p. c #C95550",
"a. c #C95551",
"s. c #C95752",
"d. c #CE5751",
"f. c #C45853",
"g. c #C55853",
"h. c #C65853",
"j. c #C75854",
"k. c #CA5853",
"l. c #CC5853",
"z. c #CF5953",
"x. c #C85854",
"c. c #C85954",
"v. c #C95954",
"b. c #CA5854",
"n. c #CA5954",
"m. c #CB5954",
"M. c #CA5A55",
"N. c #CC5954",
"B. c #CE5954",
"V. c #CC5A54",
"C. c #CD5A54",
"Z. c #CE5A54",
"A. c #CE5A55",
"S. c #CF5A55",
"D. c #CD5E59",
"F. c #CC5F5A",
"G. c #D05A55",
"H. c #D15B55",
"J. c #D25B55",
"K. c #D35B55",
"L. c #D45B55",
"P. c #D65C56",
"I. c #D26963",
"U. c #D16D67",
"Y. c #D46D67",
"T. c #D3766F",
"R. c #C87570",
"E. c #D37872",
"W. c #D6837C",
"Q. c #918F8F",
"!. c #909090",
"~. c #DE958D",
"^. c #C09A96",
"/. c #DF9B93",
"(. c #D7B3AC",
"). c #C1BAB5",
"_. c #EABCB3",
"`. c #E8BFB6",
"'. c #CBC3BD",
"]. c #CBC5BF",
"[. c #E9C3B9",
"{. c #EAC5BC",
"}. c #CCC8C2",
"|. c #D0C9C2",
" X c #E2D8CF",
".X c #E6DED5",
"XX c #F5DFD4",
"oX c None",
/* pixels */
"oXoXoXoXoXoXoXoXoXoXoXoXoXoXoXoXoXoXoXoXoXoXoXoXoXoXoXoXoXoXoXoXoXoXoXoXoXoXoXoXoXoXoXoXoXoXoXoXoXoX",
"oXoXoXoXoXoXoXoXoXoXoXoXoXoXoXoXoXoXoXoXoXoXoXoXoXoXoXoXoXoXoXoXoXoXoXoXoXoXoXoXoXoXoXoXoXoXoXoXoXoX",
"oXoXoXoXoXoXoXoXoXoXoXoXoXoXoXoXoXoXoXoXoXoXoXoXoXoXoXoXoXoXoXoXoXoXoXoXoXoXoXoXoXoXoXoXoXoXoXoXoXoX",
"oXoXoXoXoXoXoXoXoXoXoXoXoXoXoXoXoXoXoXoXoXoXoXoXoXoXoXoXoXoXoXoXoXoXoXoXoXoXoXoXoXoXoXoXoXoXoXoXoXoX",
"oXoXoXoXoXoXoXoXoXoXoXoXoXoXoXoXoXoXoXoXoXoXoXoXoXoXoXoXoXoXoXoXoXoXoXoXoXoXoXoXoXoXoXoXoXoXoXoXoXoX",
"oXoXoXoXoXoXoXoXoXoXoXoXoXoXoXoXoXoXoXoXoXoXoXoXoXoXoXoXoXoXoXoXoXoXoXoXoXoXoXoXoXoXoXoXoXoXoXoXoXoX",
"oXoXoXoXoXoXoXoXoXoXoXoXoXoXoXoXoXoXoXoXoXoXoXoXoXoXoXoXoXoXoXoXoXoXoXoXoXoXoXoXoXoXoXoXoXoXoXoXoXoX",
"oXoXoXoXoXoXoXoXoXoXoXoXoXoXoXoXoXoXoXoXoXoXoXoXoXoXoXoXoXoXoXoXoXoXoXoXoXoXoXoXoXoXoXoXoXoXoXoXoXoX",
"oXoXoXoXoXoXoXoXoXoXoXoXoXoXoXoXoXoXoXoXoXoXoXoXoXoXoXoXoXoXoXoXoXoXoXoXoXoXoXoXoXoXoXoXoXoXoXoXoXoX",
"oXoXoXoXoXoXoXoXoXoXoXoXoXoXoXoXoXoXoXoXoXoXoXoXoXoXoXoXoXoXoXoXoXoXoXoXoXoXoXoXoXoXoXoXoXoXoXoXoXoX",
"oXoXoXoXoXoXoXoXoXoXoXoXoXoXoXoXoXoXoXoXoXoXoXoXoXoXoXoXoXoXoXoXoXoXoXoXoXoXoXoXoXoXoXoXoXoXoXoXoXoX",
"oXoXoXoXoXoXoXoXoXoXoXoXoXoXoXoXoXoXoXoXoXoXoXoXoXoXoXoXoXoXoXoXoXoXoXoXoXoXoXoXoXoXoXoXoXoXoXoXoXoX",
"oXoXoXoXoXoXoXoXoXoXoXoXoXoXoXoXoXoXoXoXoXoXoXoXoXoXoXoXoXoXoXoXoXoXoXoXoXoXoXoXoXoXoXoXoXoXoXoXoXoX",
"oXoXoXoXoXoXoXoXoXoXoXoXoXoXoXoXoXoXoXoXoXoXoXoXoXoXoXoXoXoXoXoXoXoXoXoXoXoXoXoXoXoXoXoXoXoXoXoXoXoX",
"oXoXoXoXoXoXoXoXoXoXoXoXoXoXoXoXoXoXoXoXoXoXoXoXoXoXoXoXoXoXoXoXoXoXoXoXoXoXoXoXoXoXoXoXoXoXoXoXoXoX",
"oXoXoXoXoXoXoXoXoXoXoXoXoXoXoXoXoXoXoXoXoXoXoXoXoXoXoXoXoXoXoXoXoXoXoXoXoXoXoXoXoXoXoXoXoXoXoXoXoXoX",
"oXoXoXoXoXoXoXoXoXoXoXoXoXoXoXoXoXoXoXoXoXoXoXoXoXoXoXoXoXoXoXoXoXoXoXoXoXoXoXoXoXoXoXoXoXoXoXoXoXoX",
"oXoXoXoXoXoXoXoXoXoXoXoXoXoXoXoXoXoXoXoXoXoXoXoXoXoXoXoXoXoXoXoXoXoXoXoXoXoXoXoXoXoXoXoXoXoXoXoXoXoX",
"oXoXoXoXoXoXoXoXoXoXoXoXoXoXoXoXoXoXoXoXoXoXoXoXoXoXoXoXoXoXoXoXoXoXoXoXoXoXoXoXoXoXoXoXoXoXoXoXoXoX",
"oXoXoXoXoXoXoXoXoXoXoX, , , , , , , , , , , , , , , , , , , , , , , , oXoXoXoXoXoXoXoXoXoXoXoXoXoXoX",
"oXoXoXoXoXoXoXoXoXoX& q b ~ ( / ) ^ ! F x n m m m m m m m m M B z i < oXoXoXoXoXoXoXoXoXoXoXoXoXoXoX",
"oXoXoXoXoXoXoXoXoXoXo e _ ).|.].}.'.^.q.$.*.;.;.;.;.;.;.;.;.:.>.@.N 5 oXoXoXoXoXoXoXoXoXoXoXoXoXoXoX",
"oXoXoXoXoXoXoXoXoXoX  v Q..XXX{.[.`./.I.d.B.A.A.A.A.A.A.A.A.S.L.7.L 6 oXoXoXoXoXoXoXoXoXoXoXoXoXoXoX",
"oXoXoXoXoXoXoXoXoXoX. c !. X_.W.T.E.U.D.l.N.N.N.N.N.N.N.N.N.C.H.5.K 6 oXoXoXoXoXoXoXoXoXoXoXoXoXoXoX",
"oXoXoXoXoXoXoXoXoXoXX d 0.(.~.F.w.p.s.b.n.n.n.n.n.n.n.n.n.n.m.S.3.H 6 oXoXoXoXoXoXoXoXoXoXoXoXoXoXoX",
"oXoXoXoXoXoXoXoXoXoXO u +.R.Y.M.a.s.k.n.n.n.n.n.n.n.n.n.n.n.m.S.3.H 6 oXoXoXoXoXoXoXoXoXoXoXoXoXoXoX",
"oXoXoXoXoXoXoXoXoXoX@ 0 E r.z.n.n.n.n.n.n.n.n.n.n.n.n.n.n.n.m.S.3.H 6 oXoXoXoXoXoXoXoXoXoXoXoXoXoXoX",
"oXoXoXoXoXoXoXoXoXoX@ 0 E e.z.n.n.n.n.n.n.n.n.n.n.n.n.n.n.n.m.S.3.H 6 oXoXoXoXoXoXoXoXoXoXoXoXoXoXoX",
"oXoXoXoXoXoXoXoXoXoX@ w Q t.G.n.n.n.n.n.n.n.n.n.n.n.n.n.n.n.m.G.4.K 6 oXoXoXoXoXoXoXoXoXoXoXoXoXoXoX",
"oXoXoXoXoXoXoXoXoXoX@ r ` g.J.m.n.n.n.n.n.n.n.n.n.n.n.n.n.n.N.K.8.P 6 oXoXoXoXoXoXoXoXoXoXoXoXoXoXoX",
"oXoXoXoXoXoXoXoXoXoX$ 9 L -.u.c.m.n.n.m.m.m.m.n.n.n.n.n.n.m.c.t.%.V 5 oXoXoXoXoXoXoXoXoXoXoXoXoXoXoX",
"oXoXoXoXoXoXoXoXoXoX- 4 a D X.y.C.n.N.S.G.S.A.m.n.n.n.n.N.H.t.| V i 1 oXoXoXoXoXoXoXoXoXoXoXoXoXoXoX",
"oXoXoXoXoXoXoXoXoXoXoX, = 9 T 8.G.n.u.6.2.3.8.h.n.n.n.m.x.y.%.B 4 ; , oXoXoXoXoXoXoXoXoXoXoXoXoXoXoX",
"oXoXoXoXoXoXoXoXoXoXoXoX+ 3 I 7.J.v.&.R C S ] 1.V.m.m.C.5.{ n y ; * oXoXoXoXoXoXoXoXoXoXoXoXoXoXoXoX",
"oXoXoXoXoXoXoXoXoXoXoXoX@ 8 Y 8.K.v.X.k 0 y D ;.C.N.N.A.>.P y 3 , oXoXoXoXoXoXoXoXoXoXoXoXoXoXoXoXoX",
"oXoXoXoXoXoXoXoXoXoXoXoXoX8 Y 7.J.v.:.[ W ` ..5.N.m.m.V.9.o.U s < oXoXoXoXoXoXoXoXoXoXoXoXoXoXoXoXoX",
"oXoXoXoXoXoXoXoXoXoXoXoX@ 8 Y 8.G.n.j.f.u.u.g.v.n.n.n.n.n.n.;.C 2 oXoXoXoXoXoXoXoXoXoXoXoXoXoXoXoXoX",
"oXoXoXoXoXoXoXoXoXoXoXoX@ 8 Y 8.S.m.N.A.S.S.Z.m.n.n.n.n.V.K.3.S 2 oXoXoXoXoXoXoXoXoXoXoXoXoXoXoXoXoX",
"oXoXoXoXoXoXoXoXoXoXoXoX@ 8 Y 8.S.n.n.n.n.n.n.n.n.n.n.n.m.S.,.A 2 oXoXoXoXoXoXoXoXoXoXoXoXoXoXoXoXoX",
"oXoXoXoXoXoXoXoXoXoXoXoXoX8 Y 7.S.n.n.n.n.n.n.n.n.n.n.n.m.S.>.C : # oXoXoXoXoXoXoXoXoXoXoXoXoXoXoXoX",
"oXoXoXoXoXoXoXoXoXoXoXoX@ 8 Y 8.S.n.n.n.n.n.n.n.n.n.n.n.m.S.<.G 7 ; , oXoXoXoXoXoXoXoXoXoXoXoXoXoXoX",
"oXoXoXoXoXoXoXoXoXoXoXoX+ 3 I 7.G.n.n.n.n.n.n.n.n.n.n.n.m.C.9. .S p 1 oXoXoXoXoXoXoXoXoXoXoXoXoXoXoX",
"oXoXoXoXoXoXoXoXoXoXoX, = 9 T 8.S.n.n.n.n.n.n.n.n.n.n.n.n.m.c.i.=.Z 5 oXoXoXoXoXoXoXoXoXoXoXoXoXoXoX",
"oXoXoXoXoXoXoXoXoXoX- 4 a D X.y.C.n.n.n.n.n.n.n.n.n.n.n.n.n.N.K.8.P 6 oXoXoXoXoXoXoXoXoXoXoXoXoXoXoX",
"oXoXoXoXoXoXoXoXoXoX$ 9 L -.u.c.m.n.n.n.n.n.n.n.n.n.n.n.n.n.m.G.4.J 6 oXoXoXoXoXoXoXoXoXoXoXoXoXoXoX",
"oXoXoXoXoXoXoXoXoXoX+ r ' x.P.A.C.C.C.C.C.C.C.C.C.C.C.C.C.C.A.K.6.L 6 oXoXoXoXoXoXoXoXoXoXoXoXoXoXoX",
"oXoXoXoXoXoXoXoXoXoX@ w Q u.J.N.m.m.m.m.m.m.m.m.m.m.m.m.m.m.V.H.5.K 6 oXoXoXoXoXoXoXoXoXoXoXoXoXoXoX",
"oXoXoXoXoXoXoXoXoXoX% 8 V ..#.O.O.O.O.O.O.O.O.O.O.O.O.O.O.O.O.#.} l 3 oXoXoXoXoXoXoXoXoXoXoXoXoXoXoX",
"oXoXoXoXoXoXoXoXoXoX: 2 y g j h h h h h h h h h h h h h h h h j f t < oXoXoXoXoXoXoXoXoXoXoXoXoXoXoX",
"oXoXoXoXoXoXoXoXoXoX, , : * * * * * * * * * * * * * * * * * * * = > , oXoXoXoXoXoXoXoXoXoXoXoXoXoXoX"
};
