/* XPM */
static char *_428b0169cd64d1e9be77708ee9db653FyiU3kggfkVhDMEe[] = {
/* columns rows colors chars-per-pixel */
"50 50 184 2 ",
"   c None",
".  c #292A36",
"X  c #2B2C39",
"o  c #2C323F",
"O  c #31333F",
"+  c #45363F",
"@  c #363640",
"#  c #3A3641",
"$  c #3B3A44",
"%  c #413942",
"&  c #4B3A43",
"*  c #413F49",
"=  c #543D44",
"-  c #5E3F46",
";  c #653E44",
":  c #494644",
">  c #44434B",
",  c #504044",
"<  c #545646",
"1  c #525846",
"2  c #5D5C4B",
"3  c #524F55",
"4  c #59565C",
"5  c #644346",
"6  c #6B4247",
"7  c #6B4349",
"8  c #684A4B",
"9  c #724348",
"0  c #7E4649",
"q  c #754648",
"w  c #635246",
"e  c #5E6059",
"r  c #786C4C",
"t  c #6B6A5E",
"y  c #635E61",
"u  c #6B6566",
"i  c #6F696A",
"p  c #6A6466",
"a  c #73676A",
"s  c #757072",
"d  c #7A7472",
"f  c #78777A",
"g  c #79797C",
"h  c #81474A",
"j  c #934C4D",
"k  c #9D4E4E",
"l  c #855744",
"z  c #855844",
"x  c #8C584A",
"c  c #91584A",
"v  c #815659",
"b  c #A14F4E",
"n  c #A6584D",
"m  c #B4584E",
"M  c #BE5F4F",
"N  c #B2574E",
"B  c #AA5250",
"V  c #A15150",
"C  c #BA5552",
"Z  c #B75952",
"A  c #877B4E",
"S  c #9A724D",
"D  c #9A7F4C",
"F  c #896F59",
"G  c #916E59",
"H  c #847159",
"J  c #A36E47",
"K  c #A3794E",
"L  c #A96453",
"P  c #BB6453",
"I  c #B56A53",
"U  c #B96755",
"Y  c #AC7452",
"T  c #AA7B52",
"R  c #B17053",
"E  c #897D7C",
"W  c #807D7F",
"Q  c #937471",
"!  c #986B68",
"~  c #B86562",
"^  c #C9514C",
"/  c #C35653",
"(  c #CD5654",
")  c #C35C53",
"_  c #CC5954",
"`  c #CC5E59",
"'  c #C05C58",
"]  c #D25A55",
"[  c #D35752",
"{  c #C16253",
"}  c #CE6B51",
"|  c #C46754",
" . c #D06E54",
".. c #C97B52",
"X. c #C87A52",
"o. c #D17254",
"O. c #D26A64",
"+. c #C4746C",
"@. c #C9766B",
"#. c #D2726C",
"$. c #C27E76",
"%. c #D57E77",
"&. c #C96C65",
"*. c #7D844E",
"=. c #8C8C4C",
"-. c #9A814C",
";. c #898956",
":. c #968651",
">. c #9A8551",
",. c #968951",
"<. c #8D9453",
"1. c #929254",
"2. c #939559",
"3. c #929A5E",
"4. c #AE934F",
"5. c #AD984E",
"6. c #A38352",
"7. c #A68A51",
"8. c #A58959",
"9. c #8A817D",
"0. c #9D9B7A",
"q. c #A2A16F",
"w. c #A6A47D",
"e. c #A7A578",
"r. c #D28E4D",
"t. c #D4914D",
"y. c #D49C52",
"u. c #DBAA4F",
"i. c #D9A051",
"p. c #E4A44F",
"a. c #D5AC63",
"s. c #EBBA66",
"d. c #8E8480",
"f. c #938C8A",
"g. c #9F908B",
"h. c #929090",
"j. c #A1958D",
"k. c #B89A89",
"l. c #A79A92",
"z. c #AB9F96",
"x. c #B69895",
"c. c #AFAD85",
"v. c #B0AC85",
"b. c #B4B187",
"n. c #B4A491",
"m. c #B9AB9E",
"M. c #B6A89D",
"N. c #BCB292",
"B. c #BBADA1",
"V. c #BFB0A3",
"C. c #D79188",
"Z. c #C79A93",
"A. c #E09790",
"S. c #C0AE93",
"D. c #C3B79D",
"F. c #DCBF95",
"G. c #D4BA95",
"H. c #CFA3A1",
"J. c #CFA9A4",
"K. c #D4AFA8",
"L. c #C3B3A6",
"P. c #C6B7A9",
"I. c #CEBEAD",
"U. c #C9B4A7",
"Y. c #D3B2A4",
"T. c #D1BCAD",
"R. c #D5B5AC",
"E. c #D6BEB0",
"W. c #D9BCB0",
"Q. c #E8B8AF",
"!. c #E8BCB3",
"~. c #DCC095",
"^. c #D0C0AD",
"/. c #C7C0BA",
"(. c #D3C2B2",
"). c #D9C6B6",
"_. c #DAC8B7",
"`. c #DBC9B9",
"'. c #DAC7B8",
"]. c #E9C1B7",
"[. c #D3CCC4",
"{. c #E1D6CD",
"}. c #E7DFD5",
"|. c #F5DDD2",
/* pixels */
"                                                                                                    ",
"                                                                                                    ",
"                                                                                                    ",
"                                                                                                    ",
"                                                                                                    ",
"                                                                                                    ",
"                                                                                                    ",
"                                                                                                    ",
"                                                                                                    ",
"                                                                                                    ",
"                                                                                                    ",
"                                                                                                    ",
"                                                                                                    ",
"                                                                                                    ",
"                                                                                                    ",
"                                                                                                    ",
"                                                                                                    ",
"                              @ @ @ # @ # O @ # @ @ O O # O # # @ @ $ $ $ @ @                       ",
"                              @ + 5 8 < 1 1 < < 1 1 1 1 < 5 8 a f g g g s 4 $ @                     ",
"                              # 6 b L A *.*.*.*.*.;.*.*.A L ~ Z.`.[.[.[.I.W $ @                     ",
"                              # q C | T 6.6.>.1.1.>.6.6.T { O.A.!.!.].|.}.h.> .                     ",
"                              # q C ` | | P Y :.,.I P | { ) ( O.#.#.%.Q.{.h.* .                     ",
"                              # 6 C ( ( ( ( U :.>.P ( ( ( ( ( _ ( ^ ` A.Y.E > .                     ",
"                              # 9 Z ] ( ( ( I :.:.P ( ( ( _ _ _ ( ( ( O.$.0 % o                     ",
"                              # 9 C / Z M } X.4.4...} Z N N m N m ) _ ( / 0 # o                     ",
"                              # 9 Z m c J t.p.u.u.p.r.J l l z z c n ) [ C 0 + o                     ",
"                              # 9 C U G 8.a.s.s.s.s.a.8.H H H H G I _ [ / 0 + o                     ",
"                              # 9 C @.k.N.G.~.F.F.F.G.S.n.n.n.n.n.~ _ [ / h O O                     ",
"                              # ; V $.Y.'.(.(.(.(.(.(.(.(.(.(.(.T.C.&.C B 6 # o                     ",
"                              @ % ; Q U.`.(./.(.(.(.(.(.'.'._._.^.Y.Z.! 7 & # @                     ",
"                              @ O @ y l.P.I.(.(.(.(.I.V.B.B.V.P.(._.P.d $ o @                       ",
"                                O @ > y d.V.(.(.(.(.B.E p y d z.^.`.P.d $ X                         ",
"                                  @ # > d B.(.(.(.(.M.i > * 4 j.T.'.U.d $ X                         ",
"                                  @ 3 d l.P.(.(.(.(.L.j.d.9.f.x.H.W.L.d $                           ",
"                                  $ u M.(.(.(.(.^.(.^.(.I.I.I.H.H.R.U.d $ X                         ",
"                                  $ i V._.(.(.(.(.(.(.(.'.(.(.R.K.E.L.d $ X                         ",
"                                  $ u B.(.(.^.(.(.(.^.(.(.^.(.(.E.(.L.d $ X                         ",
"                                  $ i B._.(.(.(.E.(.(.(.(.(.(.(.(._.P.d $ X                         ",
"                                  # i m.(.^.^.(.(.I.I.I.^.^.^.^.(.(.V.d $ X                         ",
"                                O O 4 0.b.v.N.^.I.N.c.c.v.v.v.v.c.b.w.t $                           ",
"                              @ @ # 2 ;.1.2.e.D.N.q.2.1.2.1.2.2.2.3.1.2 $ X                         ",
"                              @ & 6 x S D =.3.w.w.3.=.-.K K K K K T S w $ o                         ",
"                              # 6 B ) { R :.<.2.3.<.>.I ) ) { ) ) { Z q # O @                       ",
"                              # q C ] ( P Y 6.5.5.7.Y P _ ( _ _ ( ] / k 6 & @ @                     ",
"                              # 9 C ( _ _ ' X.i.y.X.) _ _ _ _ _ _ _ _ / B 9 $ @                     ",
"                              # 9 C ] ] ( ` o.y.y. .( ( _ ` _ _ ( ` ] ] ( h % @                     ",
"                              # 9 C ` ( ( ( U 4.7.| ( ( _ _ _ ( _ _ _ ] ) 0 # @                     ",
"                              # - j V k k V x r r c k k k k k k k k k V j 5 # @                     ",
"                              @ % = = = = = , : : = = = = = = = = = , = = & O @                     ",
"                              @ @ O O o O O @ O O o O O o @ O o o O O O O O @ @                     "
};
