/* XPM */
static char *result[] = {
/* columns rows colors chars-per-pixel */
"50 50 184 2 ",
"   c #292A36",
".  c #2B2C39",
"X  c #2C323F",
"o  c #31333F",
"O  c #45363F",
"+  c #363640",
"@  c #3A3641",
"#  c #3B3A44",
"$  c #413942",
"%  c #4B3A43",
"&  c #413F49",
"*  c #543D44",
"=  c #5E3F46",
"-  c #653E44",
";  c #494644",
":  c #44434B",
">  c #504044",
",  c #545646",
"<  c #525846",
"1  c #5D5C4B",
"2  c #524F55",
"3  c #59565C",
"4  c #644346",
"5  c #6B4247",
"6  c #6B4349",
"7  c #684A4B",
"8  c #724348",
"9  c #7E4649",
"0  c #754648",
"q  c #635246",
"w  c #5E6059",
"e  c #786C4C",
"r  c #6B6A5E",
"t  c #635E61",
"y  c #6B6566",
"u  c #6F696A",
"i  c #6A6466",
"p  c #73676A",
"a  c #757072",
"s  c #7A7472",
"d  c #78777A",
"f  c #79797C",
"g  c #81474A",
"h  c #934C4D",
"j  c #9D4E4E",
"k  c #855744",
"l  c #855844",
"z  c #8C584A",
"x  c #91584A",
"c  c #815659",
"v  c #A14F4E",
"b  c #A6584D",
"n  c #B4584E",
"m  c #BE5F4F",
"M  c #B2574E",
"N  c #AA5250",
"B  c #A15150",
"V  c #BA5552",
"C  c #B75952",
"Z  c #877B4E",
"A  c #9A724D",
"S  c #9A7F4C",
"D  c #896F59",
"F  c #916E59",
"G  c #847159",
"H  c #A36E47",
"J  c #A3794E",
"K  c #A96453",
"L  c #BB6453",
"P  c #B56A53",
"I  c #B96755",
"U  c #AC7452",
"Y  c #AA7B52",
"T  c #B17053",
"R  c #897D7C",
"E  c #807D7F",
"W  c #937471",
"Q  c #986B68",
"!  c #B86562",
"~  c #C9514C",
"^  c #C35653",
"/  c #CD5654",
"(  c #C35C53",
")  c #CC5954",
"_  c #CC5E59",
"`  c #C05C58",
"'  c #D25A55",
"]  c #D35752",
"[  c #C16253",
"{  c #CE6B51",
"}  c #C46754",
"|  c #D06E54",
" . c #C97B52",
".. c #C87A52",
"X. c #D17254",
"o. c #D26A64",
"O. c #C4746C",
"+. c #C9766B",
"@. c #D2726C",
"#. c #C27E76",
"$. c #D57E77",
"%. c #C96C65",
"&. c #7D844E",
"*. c #8C8C4C",
"=. c #9A814C",
"-. c #898956",
";. c #968651",
":. c #9A8551",
">. c #968951",
",. c #8D9453",
"<. c #929254",
"1. c #939559",
"2. c #929A5E",
"3. c #AE934F",
"4. c #AD984E",
"5. c #A38352",
"6. c #A68A51",
"7. c #A58959",
"8. c #8A817D",
"9. c #9D9B7A",
"0. c #A2A16F",
"q. c #A6A47D",
"w. c #A7A578",
"e. c #D28E4D",
"r. c #D4914D",
"t. c #D49C52",
"y. c #DBAA4F",
"u. c #D9A051",
"i. c #E4A44F",
"p. c #D5AC63",
"a. c #EBBA66",
"s. c #8E8480",
"d. c #938C8A",
"f. c #9F908B",
"g. c #929090",
"h. c #A1958D",
"j. c #B89A89",
"k. c #A79A92",
"l. c #AB9F96",
"z. c #B69895",
"x. c #AFAD85",
"c. c #B0AC85",
"v. c #B4B187",
"b. c #B4A491",
"n. c #B9AB9E",
"m. c #B6A89D",
"M. c #BCB292",
"N. c #BBADA1",
"B. c #BFB0A3",
"V. c #D79188",
"C. c #C79A93",
"Z. c #E09790",
"A. c #C0AE93",
"S. c #C3B79D",
"D. c #DCBF95",
"F. c #D4BA95",
"G. c #CFA3A1",
"H. c #CFA9A4",
"J. c #D4AFA8",
"K. c #C3B3A6",
"L. c #C6B7A9",
"P. c #CEBEAD",
"I. c #C9B4A7",
"U. c #D3B2A4",
"Y. c #D1BCAD",
"T. c #D5B5AC",
"R. c #D6BEB0",
"E. c #D9BCB0",
"W. c #E8B8AF",
"Q. c #E8BCB3",
"!. c #DCC095",
"~. c #D0C0AD",
"^. c #C7C0BA",
"/. c #D3C2B2",
"(. c #D9C6B6",
"). c #DAC8B7",
"_. c #DBC9B9",
"`. c #DAC7B8",
"'. c #E9C1B7",
"]. c #D3CCC4",
"[. c #E1D6CD",
"{. c #E7DFD5",
"}. c #F5DDD2",
"|. c None",
/* pixels */
"|.|.|.|.|.|.|.|.|.|.|.|.|.|.|.|.|.|.|.|.|.|.|.|.|.|.|.|.|.|.|.|.|.|.|.|.|.|.|.|.|.|.|.|.|.|.|.|.|.|.",
"|.|.|.|.|.|.|.|.|.|.|.|.|.|.|.|.|.|.|.|.|.|.|.|.|.|.|.|.|.|.|.|.|.|.|.|.|.|.|.|.|.|.|.|.|.|.|.|.|.|.",
"|.|.|.|.|.|.|.|.|.|.|.|.|.|.|.|.|.|.|.|.|.|.|.|.|.|.|.|.|.|.|.|.|.|.|.|.|.|.|.|.|.|.|.|.|.|.|.|.|.|.",
"|.|.|.|.|.|.|.|.|.|.|.|.|.|.|.|.|.|.|.|.|.|.|.|.|.|.|.|.|.|.|.|.|.|.|.|.|.|.|.|.|.|.|.|.|.|.|.|.|.|.",
"|.|.|.|.|.|.|.|.|.|.|.|.|.|.|.|.|.|.|.|.|.|.|.|.|.|.|.|.|.|.|.|.|.|.|.|.|.|.|.|.|.|.|.|.|.|.|.|.|.|.",
"|.|.|.|.|.|.|.|.|.|.|.|.|.|.|.|.|.|.|.|.|.|.|.|.|.|.|.|.|.|.|.|.|.|.|.|.|.|.|.|.|.|.|.|.|.|.|.|.|.|.",
"|.|.|.|.|.|.|.|.|.|.|.|.|.|.|.|.|.|.|.|.|.|.|.|.|.|.|.|.|.|.|.|.|.|.|.|.|.|.|.|.|.|.|.|.|.|.|.|.|.|.",
"|.|.|.|.|.|.|.|.|.|.|.|.|.|.|.|.|.|.|.|.|.|.|.|.|.|.|.|.|.|.|.|.|.|.|.|.|.|.|.|.|.|.|.|.|.|.|.|.|.|.",
"|.|.|.|.|.|.|.|.|.|.|.|.|.|.|.|.|.|.|.|.|.|.|.|.|.|.|.|.|.|.|.|.|.|.|.|.|.|.|.|.|.|.|.|.|.|.|.|.|.|.",
"|.|.|.|.|.|.|.|.|.|.|.|.|.|.|.|.|.|.|.|.|.|.|.|.|.|.|.|.|.|.|.|.|.|.|.|.|.|.|.|.|.|.|.|.|.|.|.|.|.|.",
"|.|.|.|.|.|.|.|.|.|.|.|.|.|.|.|.|.|.|.|.|.|.|.|.|.|.|.|.|.|.|.|.|.|.|.|.|.|.|.|.|.|.|.|.|.|.|.|.|.|.",
"|.|.|.|.|.|.|.|.|.|.|.|.|.|.|.|.|.|.|.|.|.|.|.|.|.|.|.|.|.|.|.|.|.|.|.|.|.|.|.|.|.|.|.|.|.|.|.|.|.|.",
"|.|.|.|.|.|.|.|.|.|.|.|.|.|.|.|.|.|.|.|.|.|.|.|.|.|.|.|.|.|.|.|.|.|.|.|.|.|.|.|.|.|.|.|.|.|.|.|.|.|.",
"|.|.|.|.|.|.|.|.|.|.|.|.|.|.|.|.|.|.|.|.|.|.|.|.|.|.|.|.|.|.|.|.|.|.|.|.|.|.|.|.|.|.|.|.|.|.|.|.|.|.",
"|.|.|.|.|.|.|.|.|.|.|.|.|.|.|.|.|.|.|.|.|.|.|.|.|.|.|.|.|.|.|.|.|.|.|.|.|.|.|.|.|.|.|.|.|.|.|.|.|.|.",
"|.|.|.|.|.|.|.|.|.|.|.|.|.|.|.|.|.|.|.|.|.|.|.|.|.|.|.|.|.|.|.|.|.|.|.|.|.|.|.|.|.|.|.|.|.|.|.|.|.|.",
"|.|.|.|.|.|.|.|.|.|.|.|.|.|.|.|.|.|.|.|.|.|.|.|.|.|.|.|.|.|.|.|.|.|.|.|.|.|.|.|.|.|.|.|.|.|.|.|.|.|.",
"|.|.|.|.|.|.|.|.|.|.|.+ + # + # @ + # + o o $ o o @ + o + + + + + + + |.|.|.|.|.|.|.|.|.|.|.|.|.|.|.",
"|.|.|.|.|.|.|.|.|.|.+ + 3 a E f f f p 7 7 , < < 1 , , < < < , 7 4 % + |.|.|.|.|.|.|.|.|.|.|.|.|.|.|.",
"|.|.|.|.|.|.|.|.|.|.+ # E P.].].].].C.! x Z &.&.*.&.&.&.&.&.Z K N - @ |.|.|.|.|.|.|.|.|.|.|.|.|.|.|.",
"|.|.|.|.|.|.|.|.|.|.. : g.{.}.Q.Q.Q.Z.o.[ Y 5.5.5.<.<.:.:.5.Y } V 8 + |.|.|.|.|.|.|.|.|.|.|.|.|.|.|.",
"|.|.|.|.|.|.|.|.|.|.. & g.[.W.$.@.@.o._ ( [ [ [ T ;.;.U [ [ ( { V 8 @ |.|.|.|.|.|.|.|.|.|.|.|.|.|.|.",
"|.|.|.|.|.|.|.|.|.|.. # R J.V._ / ~ / / / / / ] L ;.;.I / / / ' V 8 @ |.|.|.|.|.|.|.|.|.|.|.|.|.|.|.",
"|.|.|.|.|.|.|.|.|.|.. & c O.o.) / / ^ ) / / ) ) L :.;.I / / ) ) V 8 @ |.|.|.|.|.|.|.|.|.|.|.|.|.|.|.",
"|.|.|.|.|.|.|.|.|.|.+ @ 9 ^ ] ) V n M M M M C {  .3.3. .{ m n ( V 8 + |.|.|.|.|.|.|.|.|.|.|.|.|.|.|.",
"|.|.|.|.|.|.|.|.|.|.X + 9 V ] ( M x k k k k H e.i.y.y.i.r.H x n V 8 + |.|.|.|.|.|.|.|.|.|.|.|.|.|.|.",
"|.|.|.|.|.|.|.|.|.|.+ @ g ^ ] ) K F G G G G 7.p.a.a.a.a.p.7.F L V 8 + |.|.|.|.|.|.|.|.|.|.|.|.|.|.|.",
"|.|.|.|.|.|.|.|.|.|.+ @ 9 ^ ] ) O.j.b.b.b.b.M.F.!.D.D.D.F.M.j.+.V 0 @ |.|.|.|.|.|.|.|.|.|.|.|.|.|.|.",
"|.|.|.|.|.|.|.|.|.|.+ # 6 N [ } V.Y././././././.P././././.`.U.! B - + |.|.|.|.|.|.|.|.|.|.|.|.|.|.|.",
"|.|.|.|.|.|.|.|.|.|.+ + % 7 Q C.U.~.(.`.`.(.(./.^./.P././._.Y.8.- O + |.|.|.|.|.|.|.|.|.|.|.|.|.|.|.",
"|.|.|.|.|.|.|.|.|.|.|.+ + # s L.(./.L.B.N.N.K.Y././././.R.L.l.i + o + |.|.|.|.|.|.|.|.|.|.|.|.|.|.|.",
"|.|.|.|.|.|.|.|.|.|.|.|.. + a L._./.l.s t i R N././././.B.8.t : + o |.|.|.|.|.|.|.|.|.|.|.|.|.|.|.|.",
"|.|.|.|.|.|.|.|.|.|.|.|.. # d L.`.Y.f.3 % : u m./././.(.n.s : o o |.|.|.|.|.|.|.|.|.|.|.|.|.|.|.|.|.",
"|.|.|.|.|.|.|.|.|.|.|.|.|.# s K.E.H.z.d.8.s.h.K././././.L.k.E 2 o |.|.|.|.|.|.|.|.|.|.|.|.|.|.|.|.|.",
"|.|.|.|.|.|.|.|.|.|.|.|.. # s K.T.G.G.P.P.P././././././././.n.y $ |.|.|.|.|.|.|.|.|.|.|.|.|.|.|.|.|.",
"|.|.|.|.|.|.|.|.|.|.|.|.. & s K.Y.J.T./.(././././.Y./././.).B.u @ |.|.|.|.|.|.|.|.|.|.|.|.|.|.|.|.|.",
"|.|.|.|.|.|.|.|.|.|.|.|.  # s I.`./././././././.~./././././.N.u @ |.|.|.|.|.|.|.|.|.|.|.|.|.|.|.|.|.",
"|.|.|.|.|.|.|.|.|.|.|.|.. # s L.`././././././././.R././././.N.u @ |.|.|.|.|.|.|.|.|.|.|.|.|.|.|.|.|.",
"|.|.|.|.|.|.|.|.|.|.|.|.. # s K./.~.~.~.P.P.P.P.P.~./.~././.n.y # |.|.|.|.|.|.|.|.|.|.|.|.|.|.|.|.|.",
"|.|.|.|.|.|.|.|.|.|.|.|.|.# r q.v.x.x.c.x.c.x.x.M.P.P.M.c.v.9.w + X |.|.|.|.|.|.|.|.|.|.|.|.|.|.|.|.",
"|.|.|.|.|.|.|.|.|.|.|.|.. @ 1 -.1.1.1.1.1.1.<.<.0.S.S.w.,.1.-.1 @ o + |.|.|.|.|.|.|.|.|.|.|.|.|.|.|.",
"|.|.|.|.|.|.|.|.|.|.|.|.+ + q A Y J J J J J S *.2.q.q.2.*.S A z 5 * + |.|.|.|.|.|.|.|.|.|.|.|.|.|.|.",
"|.|.|.|.|.|.|.|.|.|.|.+ + + 0 I } ( [ ( ( ( P ;.,.1.1.,.;.U ( ^ N - + |.|.|.|.|.|.|.|.|.|.|.|.|.|.|.",
"|.|.|.|.|.|.|.|.|.|.+ + % 6 j ^ ) / / ) / / [ U 6.4.3.6.U L ' ' ^ 0 + |.|.|.|.|.|.|.|.|.|.|.|.|.|.|.",
"|.|.|.|.|.|.|.|.|.|.o @ 8 N ^ ) ) ) ) ) ) ) _ ( ..t.t. .( ) ) _ V 8 + |.|.|.|.|.|.|.|.|.|.|.|.|.|.|.",
"|.|.|.|.|.|.|.|.|.|.X @ g ) ' ) _ ) ) ) ) ) / / { t.t.X.' / ) ' V 8 @ |.|.|.|.|.|.|.|.|.|.|.|.|.|.|.",
"|.|.|.|.|.|.|.|.|.|.+ + g ^ ' ) ) ) ) ) ) ) ) ) I 3.6.} ) ) ) ' V 8 @ |.|.|.|.|.|.|.|.|.|.|.|.|.|.|.",
"|.|.|.|.|.|.|.|.|.|.+ + 6 h v B j j j j j j j B x e e x j j j v h - + |.|.|.|.|.|.|.|.|.|.|.|.|.|.|.",
"|.|.|.|.|.|.|.|.|.|.+ + $ * * * * * * * * > * * * ; ; > * * * * % & + |.|.|.|.|.|.|.|.|.|.|.|.|.|.|.",
"|.|.|.|.|.|.|.|.|.|.+ + + o o X + o o X X o o + o o o o + o o X o + + |.|.|.|.|.|.|.|.|.|.|.|.|.|.|."
};
