/* XPM */
static char *result[] = {
/* columns rows colors chars-per-pixel */
"50 50 118 2 ",
"   c #0E0E0D",
".  c #0F0F0E",
"X  c #0D0D0C",
"o  c #100F0F",
"O  c #131212",
"+  c #161515",
"@  c #191818",
"#  c #191919",
"$  c #161616",
"%  c #171716",
"&  c #1A191A",
"*  c gray9",
"=  c #161615",
"-  c #151514",
";  c #171616",
":  c #111110",
">  c #1A1919",
",  c gray10",
"<  c #181717",
"1  c #181818",
"2  c #141413",
"3  c #151515",
"4  c #10100F",
"5  c #121111",
"6  c #151414",
"7  c #111111",
"8  c #181817",
"9  c #131313",
"0  c gray6",
"q  c #121211",
"w  c #131312",
"e  c #101010",
"r  c #111010",
"t  c gray8",
"y  c gray7",
"u  c #141313",
"i  c #191918",
"p  c #1A1A19",
"a  c #1B1B1B",
"s  c #1B1A1A",
"d  c #1C1B1B",
"f  c #1B1B1A",
"g  c #1D1D1D",
"h  c gray11",
"j  c #1C1C1B",
"k  c #1E1E1E",
"l  c #1E1E1D",
"z  c #1D1C1C",
"x  c #201F1F",
"c  c #1D1D1C",
"v  c #1F1F1E",
"b  c #1E1D1D",
"n  c #202020",
"m  c #212020",
"M  c #1F1E1E",
"N  c gray12",
"B  c gray13",
"V  c #20201F",
"C  c #212120",
"Z  c #222121",
"A  c #222221",
"S  c #242323",
"D  c #232222",
"F  c #232322",
"G  c #222222",
"H  c #252525",
"J  c gray14",
"K  c #252424",
"L  c #232323",
"P  c gray15",
"I  c #242423",
"U  c #252524",
"Y  c #272626",
"T  c #262525",
"R  c #282827",
"E  c #272726",
"W  c #282727",
"Q  c #262625",
"!  c gray16",
"~  c #2A2929",
"^  c #292828",
"/  c #282828",
"(  c #272727",
")  c #2B2A2A",
"_  c #2A2A2A",
"`  c #292928",
"'  c #171615",
"]  c #2C2B2B",
"[  c #2A2A29",
"{  c gray17",
"}  c #1E1D1C",
"|  c #2C2C2C",
" . c #2B2B2A",
".. c #2D2C2C",
"X. c #2E2D2D",
"o. c #2C2C2B",
"O. c #2D2D2C",
"+. c gray18",
"@. c #2D2C2B",
"#. c #2B2A29",
"$. c #2F2E2E",
"%. c #232221",
"&. c #2D2D2D",
"*. c #302F2F",
"=. c #2E2E2D",
"-. c #313030",
";. c gray19",
":. c #313130",
">. c #282726",
",. c #272625",
"<. c #2E2D2C",
"1. c #2C2B2A",
"2. c #2A2928",
"3. c #242322",
"4. c #252423",
"5. c #201F1E",
"6. c #1F1E1D",
"7. c white",
/* pixels */
"  . X o O + @ # $ % & * = - ; :       : O * # > > # , < - < 1 * > 1 # 1 $ % $ 2 $ @ # ; 3 * 4     X ",
". . . 5 2 % @ < % % # ; 3 6 ; 5 o o o 7 O 8 > # 1 # , 1 = * < $ > 8 1 $ + ; 3 9 $ 1 @ = 3 $ : 4 0   ",
"4 o . q + * < % % * > ; ; + + 2 : 4 : w 9 1 > # 1 8 # @ ; < % 3 # < 1 ; $ * - 2 * ; * - 3 $ q e q 4 ",
": r q O $ 1 * $ < $ @ * * 3 + - q : q - 3 < 1 @ * < # # ; 1 < + # 8 @ < ; * + 3 < ; = 9 t * y : u 4 ",
"w q 9 w * 1 < $ 1 $ # 8 < $ = ; u O w - + 1 @ # < @ i > % 8 % = 1 * 1 # ; ; $ = 1 < $ u - * w w 2 : ",
"u w 6 2 < < 1 ; 1 ; # < @ ; $ 1 + 2 2 - 3 # @ @ % @ > i * * < = 1 ; ; # ; ; < ; @ @ = 3 - * t O 6 5 ",
"6 6 + + 8 < @ ; i @ p > > 1 1 # * + + + ; # , < = > a > 8 i 8 3 @ * * @ % ; 8 $ 1 # + $ t * 3 w = q ",
"= + % ; # < # % 8 @ s > > i > s * = + = 8 i > # ; > a , > , i $ i 8 8 < % < 1 = # 1 $ < - * 6 t $ O ",
"* ; < ; > < , @ @ # s , p p s a 1 ; - 8 @ > p , % , d , , p a < 8 1 i i 1 % < = , # + $ $ < 2 u = u ",
"% % @ % p 1 p p > f a f i s , g p 8 ; # , a a s < , a , s > g < < i @ > @ * @ = p > $ % ; $ t u % 2 ",
"+ 8 , 8 f i s a s h a f a j f k s i 8 a j d s h > f h j g p g 8 1 > > > < * @ ; s , + % % ; - 2 * t ",
"= i f p j p , j h l j j g g z x j f p j c j f c p , z c v , b # p p p , @ 1 i ; s a ; % < ; + 2 ; t ",
"< i j a c j s h l n b b b l k m l d j l l g z b f f M c M f v a s s , a p # # * d s % < 1 ; - 6 8 - ",
"# > h d b M c M v n x N M v n m v j l M k v M b j l B k M c n d a f a j d a p 1 h , * < @ * 2 6 @ t ",
"s p c z v v N x V C V m m m Z B x c x x v B x M k N Z v v l B b z c h g b d , @ z > 8 1 i @ - + < u ",
"d f M l n N V m Z A m S D D F F A V C Z m G C V Z B F Z x l D x b l b l l j d s h 1 @ @ @ < + % < u ",
"z j x x B n Z D S D Z H S J K K S Z D F D S F A S S J F C M L m b v M M N c h d g i # p 8 i + 8 @ 2 ",
"l c n C A C F J J S F P I U H Y T L K I K T K F K K H I A x J C l N x x V b j z k p f a i , ; @ i - ",
"x M Z A D D I T H I T R T E T W E K Y U T Y T I T T Q K F V K F m V m V B M z b N f c b p a % @ @ = ",
"G x D A K I I T Y K T ! Q ~ Y ^ ~ Y ^ / W W E T T T ( P U A T L Z C F m B v j v x a g k p a 1 i i = ",
"J C I F T K K Y W T Y ) W _ Y ! ) ( ) ~ ^ ` ` E E Y W E T F U K D A K B C V c M M z x M > s p , > ' ",
"H D U I U Y Y ^ R Y W ] ^ ) R [ { W ] { ^ ~ [ / ^ W ~ R U D K T S S H Z Z C } M l M N M j j p s # * ",
"K I K U T Y R ~ ^ R ^ | ~  .` ] ..` X.o.) ) [ ` ~ W ) ` Q I U Y T I T F B C M x l x M b z g p s > < ",
"T I U Y T E ^ ) ~ ` ~ ..) | ) o.O.) X.] O.] ] [ ) ~ _ ) E U T W Y I Y I D C x x b m l c z b > , p # ",
"T T E W Y W ` { ) )  ...o...) ..X.o.+.@.X.o.] ) ]  .{ ) R Y E ^ E S Y F D C m x l Z l z z c i s , f ",
"T W ^ ^ E ^ ~ | ] | ....o.X.#...X...$.X.$...] ] .. .|  .~ Q R ^ / K T %.S G m m M Z v b c g f , s , ",
"Y ^ / R W ^ [ ..] X.&...O.X.[ O.+.X.*.*.$.......] ] X.{ [ Y ^ / ~ S U F K D m C V Z V b b b d # > s ",
"Q ^ ^ W ^ ^ ~ ....$.X.O.O.X. .X.=.O.-.;.$.X.X.@. . .$.] [ E ` W [ U K S T S V A Z D n b z M h i p f ",
"Q ^ R R W W ~ &.X.$.+.O...$.] ..X.$.-.-.*.X.$.o. . ...o._ E ~ E ~ Y F S Q U C D Z Z C M z l z i a a ",
"T / Y ^ W W ^ ..+.$.$...@.$.] ..X.*.:.*.*.O.X...#.) ) o.[ >.~ W ^ ,.F K T K Z A Z Z m M k M g > s , ",
"K R Y ~ ^ E R { X.=.$...] X.o.X.<.*.;.;.*.o.O.O.]  .) o.~ Y ^ E ` T S K H S A Z Z m x M l M z p p p ",
"K W Y ` R Y R ..&...$...] X.) 1.O.$.$.-.*. ...O.]  .~  .` W W Y ~ K F U K S Z Z Z m N M b M d > > a ",
"I W Y W E Y ^ ....o.+.o.] O.) ) o.=.$.*.$.] ..o.#.2.2.~ ^ Y W R / S D T S L C C m x M M b c a > @ f ",
"S Y Y Y Y Q / ~  . .+.) ....~ ) ] X.X.*.X.) o. .[ ^ ^ ~ ^ U Y / W 3.F K A A n x m x l c b z s > @ a ",
"S Y W Q Q W ^ R [ [ ..) o.] ` 2. .....$.X.) [ ~ ~ R W ^ W 4.T W ( S D S C D m v m n k j d h s i @ a ",
"F T W Y T Y / W ` ^  .)  .) ~ ^  ...] ....~ ^ ~ E E E E Y K T Y E F D B m D v l m x b a d d , 8 8 s ",
"S J Y Y T T Y Y R Y  .! ~ ~ ^ ^ ~ ) [ { _ ^ R ! Q Q Q T Q I T U Y D D C 5.A M l n N z f h s p 1 8 p ",
"D S H T K K P Y E T ! R ^ R W W ^ ! ` ) ! R W >.U K K U K D J I U m D Z 6.m x M x M z > f , > @ @ i ",
"A F I J F S I Q T U W Y W Y T P W W E ` / Y Q Y K I I K S Z L F L V Z C l V M c M l j i , # # 8 @ 1 ",
"V B F S D D D T I K ( H Y P U K T Y Y W Y T T Q S Z F S D m A D F v V Z l v z a z b d @ i 8 < 8 < 8 ",
"x n m m D Z D K D S U F U S F I I T Q T H K T K F m C D Z v Z Z C b N m k l j s f g j 1 1 < % % 1 ; ",
"b N V v C m A D C F S G S Z A G G I I K J L K L G V x B x M m v x b g N b g d s f z a i 1 ; + + 1 + ",
"d M V b n V C m x Z Z V G C F V B Z D F D C D D G M x m v M M k x z g l k g f p p j s # < + 6 + < + ",
"s g x g M k x v v x v M m x G M n m m Z C x m B m b x x b b c g k j h z g h > @ @ a # < 1 = 2 = ; + ",
"p h l d g l v b M N b c v l B k x x v n C v M x x c v N z j h h c f d f d a @ % i > @ ; 8 = u 3 ; + ",
"p d h a h z l h z l h d h j x c b l l M v b z g k d l k j p j d a p a @ s s i = < @ @ = % - q 3 ; 3 ",
"> f d , h a g a d j f d p f N d s j c z h j s j z > h j a @ f s , 1 s @ > i p = - > @ - = 6 q 2 ; 3 ",
"i 1 a i d p a > p f s , , , g s p p f d j a s f a @ , f f % > i > < > # > ; > + 6 @ 1 + $ 2 O 2 % - ",
"1 8 , 8 s 8 , i 8 @ @ i , @ d > # 8 # > s f # i @ % # , i ; > % 8 % # # @ - i - u < < + % 9 O - ; 9 ",
"8 < @ % s < > # % 8 8 i i % s @ < % < < > , 1 @ = % @ @ $ = # = % % @ @ % 2 1 6 O % = + % y q 6 3 t "
};
