/* XPM */
static char *pngwing_com1680529361[] = {
/* columns rows colors chars-per-pixel */
"50 50 7 1 ",
"  c None",
". c black",
"X c red",
"o c #804716",
"O c #FFEB3B",
"+ c #FFAD60",
"@ c #3F51B5",
/* pixels */
"                                                  ",
"                                                  ",
"                XXXXXXXXXXXXXXX                   ",
"                XXXXXXXXXXXXXXX                   ",
"                XXXXXXXXXXXXXXX                   ",
"             XXXXXXXXXXXXXXXXXXXXXXXXXXX          ",
"             XXXXXXXXXXXXXXXXXXXXXXXXXXX          ",
"             XXXXXXXXXXXXXXXXXXXXXXXXXXX          ",
"             ooooooooo++++++...+++                ",
"             ooooooooo++++++...+++                ",
"             ooooooooo++++++...+++                ",
"          ooo+++ooo+++++++++...+++++++++          ",
"          ooo+++ooo+++++++++...+++++++++          ",
"          ooo+++ooo+++++++++...+++++++++          ",
"          ooo+++oooooo+++++++++...+++++++++       ",
"          ooo+++oooooo+++++++++...+++++++++       ",
"          ooo+++oooooo+++++++++...+++++++++       ",
"             ooo++++++++++++............          ",
"             ooo++++++++++++............          ",
"             ooo++++++++++++............          ",
"                ++++++++++++++++++                ",
"                ++++++++++++++++++                ",
"                ++++++++++++++++++                ",
"             XXXXXX@@@XXXXXX@@@XXXXXX             ",
"             XXXXXX@@@XXXXXX@@@XXXXXX             ",
"             XXXXXX@@@XXXXXX@@@XXXXXX             ",
"          XXXXXXXXX@@@XXXXXX@@@XXXXXXXXX          ",
"          XXXXXXXXX@@@XXXXXX@@@XXXXXXXXX          ",
"          XXXXXXXXX@@@XXXXXX@@@XXXXXXXXX          ",
"       XXXXXXXXXXXX@@@@@@@@@@@@XXXXXXXXXXXX       ",
"       XXXXXXXXXXXX@@@@@@@@@@@@XXXXXXXXXXXX       ",
"       XXXXXXXXXXXX@@@@@@@@@@@@XXXXXXXXXXXX       ",
"       ++++++XXX@@@OOO@@@@@@OOO@@@XXX++++++       ",
"       ++++++XXX@@@OOO@@@@@@OOO@@@XXX++++++       ",
"       ++++++XXX@@@OOO@@@@@@OOO@@@XXX++++++       ",
"       +++++++++@@@@@@@@@@@@@@@@@@+++++++++       ",
"       +++++++++@@@@@@@@@@@@@@@@@@+++++++++       ",
"       +++++++++@@@@@@@@@@@@@@@@@@+++++++++       ",
"       ++++++@@@@@@@@@@@@@@@@@@@@@@@@++++++       ",
"       ++++++@@@@@@@@@@@@@@@@@@@@@@@@++++++       ",
"       ++++++@@@@@@@@@@@@@@@@@@@@@@@@++++++       ",
"             @@@@@@@@@      @@@@@@@@@             ",
"             @@@@@@@@@      @@@@@@@@@             ",
"             @@@@@@@@@      @@@@@@@@@             ",
"          ooooooooo            ooooooooo          ",
"          ooooooooo            ooooooooo          ",
"          ooooooooo            ooooooooo          ",
"       oooooooooooo            oooooooooooo       ",
"       oooooooooooo            oooooooooooo       ",
"       oooooooooooo            oooooooooooo       "
};
