/* XPM */
static char *result[] = {
/* columns rows colors chars-per-pixel */
"50 50 184 2 ",
"   c #292936",
".  c #2B2D3A",
"X  c #262835",
"o  c #2C323F",
"O  c #30343F",
"+  c #343540",
"@  c #3B3741",
"#  c #3A3943",
"$  c #3E3E48",
"%  c #373943",
"&  c #423842",
"*  c #4A3A43",
"=  c #443640",
"-  c #543D44",
";  c #5D3F46",
":  c #683F45",
">  c #48464A",
",  c #584146",
"<  c #565B46",
"1  c #5A5A49",
"2  c #5A5846",
"3  c #4D4B52",
"4  c #56535A",
"5  c #5B575B",
"6  c #5F5B5F",
"7  c #674147",
"8  c #624F46",
"9  c #6E4348",
"0  c #684947",
"q  c #734448",
"w  c #7A4549",
"e  c #784347",
"r  c #604A50",
"t  c #734E52",
"y  c #7A5154",
"u  c #7A6D4C",
"i  c #65645A",
"p  c #635D61",
"a  c #6E6769",
"s  c #6A6466",
"d  c #746D6D",
"f  c #7B6B6E",
"g  c #7C7573",
"h  c #7A777A",
"j  c #81474A",
"k  c #934C4D",
"l  c #9D4E4E",
"z  c #825744",
"x  c #8E5A46",
"c  c #865A47",
"v  c #93574D",
"b  c #A24F4F",
"n  c #AE574D",
"m  c #AD5A4D",
"M  c #A0504F",
"N  c #B2584E",
"B  c #BB584F",
"V  c #AC5250",
"C  c #A05150",
"Z  c #BB5552",
"A  c #B35A51",
"S  c #BE5B57",
"D  c #976E4D",
"F  c #9D6B47",
"G  c #8D794D",
"H  c #9D7C4D",
"J  c #89765F",
"K  c #87765E",
"L  c #93725D",
"P  c #BD614E",
"I  c #A6754D",
"U  c #A9784F",
"Y  c #A66A51",
"T  c #BD6553",
"R  c #B56C53",
"E  c #B56756",
"W  c #AE7452",
"Q  c #AB7B52",
"!  c #B57253",
"~  c #906866",
"^  c #817575",
"/  c #BE6A66",
"(  c #B1746F",
")  c #CA534E",
"_  c #C25653",
"`  c #CD5654",
"'  c #C45C53",
"]  c #CB5954",
"[  c #CC5D58",
"{  c #D15754",
"}  c #D25A55",
"|  c #C26253",
" . c #CD6C51",
".. c #C86658",
"X. c #CC7852",
"o. c #CC6C66",
"O. c #C96A65",
"+. c #D26B65",
"@. c #C3746A",
"#. c #CB7C71",
"$. c #D47D76",
"%. c #81864E",
"&. c #8B884D",
"*. c #9D824D",
"=. c #878754",
"-. c #958751",
";. c #9B8351",
":. c #958A51",
">. c #8E9253",
",. c #8F9759",
"<. c #939356",
"1. c #B2944F",
"2. c #B1994E",
"3. c #A58252",
"4. c #A68851",
"5. c #999D65",
"6. c #8D837F",
"7. c #9E9D79",
"8. c #A28862",
"9. c #AB9163",
"0. c #A7A679",
"q. c #CE8F4D",
"w. c #D8974E",
"e. c #C68250",
"r. c #CD9852",
"t. c #D99B51",
"y. c #DEAC4F",
"u. c #DCA351",
"i. c #E6A750",
"p. c #D1A967",
"a. c #DAB168",
"s. c #EBBB69",
"d. c #7F7F81",
"f. c #817F81",
"g. c #888586",
"h. c #968C86",
"j. c #9C928B",
"k. c #A4938E",
"l. c #BB9C8B",
"z. c #A89C93",
"x. c #B89C95",
"c. c #ADAB80",
"v. c #B1AF82",
"b. c #B7AF8C",
"n. c #AFA39A",
"m. c #B1A39A",
"M. c #BBAC9A",
"N. c #B6A99F",
"B. c #BDB395",
"V. c #BAACA1",
"C. c #BFB0A4",
"Z. c #C3988D",
"A. c #D79188",
"S. c #E09790",
"D. c #C0A290",
"F. c #C6B39A",
"G. c #C4B89E",
"H. c #D4BC99",
"J. c #DBBF99",
"K. c #CFA5A1",
"L. c #D1A9A3",
"P. c #D0A1A1",
"I. c #C2B3A6",
"U. c #CDBEAC",
"Y. c #CBBCA7",
"T. c #D3B5AA",
"R. c #D2BCAE",
"E. c #D8B5A6",
"W. c #CDBEB0",
"Q. c #D8BDB1",
"!. c #E7B7AE",
"~. c #E9BCB3",
"^. c #DBC099",
"/. c #D2C2AE",
"(. c #C8C1BB",
"). c #D3C2B2",
"_. c #D9C6B5",
"`. c #DBCAB9",
"'. c #DBC9B7",
"]. c #D7CEC6",
"[. c #DBD2CA",
"{. c #E3DCD3",
"}. c #F6DED3",
"|. c None",
/* pixels */
"|.|.|.|.|.|.|.|.|.|.|.|.|.|.|.|.|.|.|.|.|.|.|.|.|.|.|.|.|.|.|.|.|.|.|.|.|.|.|.|.|.|.|.|.|.|.|.|.|.|.",
"|.|.|.|.|.|.|.|.|.|.|.|.|.|.|.|.|.|.|.|.|.|.|.|.|.|.|.|.|.|.|.|.|.|.|.|.|.|.|.|.|.|.|.|.|.|.|.|.|.|.",
"|.|.|.|.|.|.|.|.|.|.|.|.|.|.|.|.|.|.|.|.|.|.|.|.|.|.|.|.|.|.|.|.|.|.|.|.|.|.|.|.|.|.|.|.|.|.|.|.|.|.",
"|.|.|.|.|.|.|.|.|.|.|.|.|.|.|.|.|.|.|.|.|.|.|.|.|.|.|.|.|.|.|.|.|.|.|.|.|.|.|.|.|.|.|.|.|.|.|.|.|.|.",
"|.|.|.|.|.|.|.|.|.|.|.|.|.|.|.|.|.|.|.|.|.|.|.|.|.|.|.|.|.|.|.|.|.|.|.|.|.|.|.|.|.|.|.|.|.|.|.|.|.|.",
"|.|.|.|.|.|.|.|.|.|.|.|.|.|.|.|.|.|.|.|.|.|.|.|.|.|.|.|.|.|.|.|.|.|.|.|.|.|.|.|.|.|.|.|.|.|.|.|.|.|.",
"|.|.|.|.|.|.|.|.|.|.|.|.|.|.|.|.|.|.|.|.|.|.|.|.|.|.|.|.|.|.|.|.|.|.|.|.|.|.|.|.|.|.|.|.|.|.|.|.|.|.",
"|.|.|.|.|.|.|.|.|.|.|.|.|.|.|.|.|.|.|.|.|.|.|.|.|.|.|.|.|.|.|.|.|.|.|.|.|.|.|.|.|.|.|.|.|.|.|.|.|.|.",
"|.|.|.|.|.|.|.|.|.|.|.|.|.|.|.|.|.|.|.|.|.|.|.|.|.|.|.|.|.|.|.|.|.|.|.|.|.|.|.|.|.|.|.|.|.|.|.|.|.|.",
"|.|.|.|.|.|.|.|.|.|.|.|.|.|.|.|.|.|.|.|.|.|.|.|.|.|.|.|.|.|.|.|.|.|.|.|.|.|.|.|.|.|.|.|.|.|.|.|.|.|.",
"|.|.|.|.|.|.|.|.|.|.|.|.|.|.|.|.|.|.|.|.|.|.|.|.|.|.|.|.|.|.|.|.|.|.|.|.|.|.|.|.|.|.|.|.|.|.|.|.|.|.",
"|.|.|.|.|.|.|.|.|.|.|.|.|.|.|.|.|.|.|.|.|.|.|.|.|.|.|.|.|.|.|.|.|.|.|.|.|.|.|.|.|.|.|.|.|.|.|.|.|.|.",
"|.|.|.|.|.|.|.|.|.|.|.|.|.|.|.|.|.|.|.|.|.|.|.|.|.|.|.|.|.|.|.|.|.|.|.|.|.|.|.|.|.|.|.|.|.|.|.|.|.|.",
"|.|.|.|.|.|.|.|.|.|.|.|.|.|.|.|.|.|.|.|.|.|.|.|.|.|.|.|.|.|.|.|.|.|.|.|.|.|.|.|.|.|.|.|.|.|.|.|.|.|.",
"|.|.|.|.|.|.|.|.|.|.|.|.|.|.|.|.|.|.|.|.|.|.|.|.|.|.|.|.|.|.|.|.|.|.|.|.|.|.|.|.|.|.|.|.|.|.|.|.|.|.",
"|.|.|.|.|.|.|.|.|.|.|.|.|.+ + @ # O # @ O % @ % % @ @ @ # # # # # $ # @ + |.|.|.|.|.|.|.|.|.|.|.|.|.",
"|.|.|.|.|.|.|.|.|.|.|.|.+ + - 7 0 2 < < < < < < < < < 0 t f ^ g.f.f.h 4 # O |.|.|.|.|.|.|.|.|.|.|.|.",
"|.|.|.|.|.|.|.|.|.|.|.|.+ @ q n W &.%.%.%.%.%.%.%.%.G m / F.].].[.[.(.h $   |.|.|.|.|.|.|.|.|.|.|.|.",
"|.|.|.|.|.|.|.|.|.|.|.|.o + w Z ..Q 3.Q ;.<.:.;.3.3.W | +.S.!.!.~.}.{.g.$   |.|.|.|.|.|.|.|.|.|.|.|.",
"|.|.|.|.|.|.|.|.|.|.|.|.+ @ w _ | ' T T W :.;.E | | | ] [ +.+.o.$.~.[.g.$   |.|.|.|.|.|.|.|.|.|.|.|.",
"|.|.|.|.|.|.|.|.|.|.|.|.o @ w Z } ] { ` R -.;.T { ` { ] ` ] ` ) ..S.P.^ $   |.|.|.|.|.|.|.|.|.|.|.|.",
"|.|.|.|.|.|.|.|.|.|.|.|.o # w Z } ] ` ] R -.*.T ` ] ] ] ` ] ` _ ] +.O.y @ o |.|.|.|.|.|.|.|.|.|.|.|.",
"|.|.|.|.|.|.|.|.|.|.|.|.o @ w Z ' N P  .e.1.1.X. .B n n n n N _ ] ) Z e @ o |.|.|.|.|.|.|.|.|.|.|.|.",
"|.|.|.|.|.|.|.|.|.|.|.|.o @ w Z n x I w.i.y.y.i.q.F z z z z x n ] { Z e # o |.|.|.|.|.|.|.|.|.|.|.|.",
"|.|.|.|.|.|.|.|.|.|.|.|.o @ w Z E L 9.a.s.s.s.s.p.4.K K J K L A ] } Z w @ o |.|.|.|.|.|.|.|.|.|.|.|.",
"|.|.|.|.|.|.|.|.|.|.|.|.o # e S #.D.F.H.^.H.^.^.H.F.M.M.M.M.l.@.] } _ w @ o |.|.|.|.|.|.|.|.|.|.|.|.",
"|.|.|.|.|.|.|.|.|.|.|.|.o @ : M ( x.I.W._.).).).W.V.n.n.V.U.T.A.o.S M 7 @ o |.|.|.|.|.|.|.|.|.|.|.|.",
"|.|.|.|.|.|.|.|.|.|.|.|.+ + * ; , s g.I.).(.)._.V.h 6 6 d n.R.E.Z.~ , = + + |.|.|.|.|.|.|.|.|.|.|.|.",
"|.|.|.|.|.|.|.|.|.|.|.|.|.+ + + + + a V._.).).).z.4 + X 3 j.).`.C.d # o + |.|.|.|.|.|.|.|.|.|.|.|.|.",
"|.|.|.|.|.|.|.|.|.|.|.|.|.|.+ O . o s V._.).).).z.4 X X 3 j.).`.C.d % . |.|.|.|.|.|.|.|.|.|.|.|.|.|.",
"|.|.|.|.|.|.|.|.|.|.|.|.|.|.|.+ @ 3 g I._.).).).z.d > > p z./._.C.d # |.|.|.|.|.|.|.|.|.|.|.|.|.|.|.",
"|.|.|.|.|.|.|.|.|.|.|.|.|.|.|.@ 5 g.m.Y.).).).Q.I.z.h.h.k.x.L.Q.I.d # |.|.|.|.|.|.|.|.|.|.|.|.|.|.|.",
"|.|.|.|.|.|.|.|.|.|.|.|.|.|.|.@ d V._.).).).).R./.)./.W.R.K.P.T.V.d # |.|.|.|.|.|.|.|.|.|.|.|.|.|.|.",
"|.|.|.|.|.|.|.|.|.|.|.|.|.|.|.# d I.'.)./.).).).).)._._.).T.T.Q.I.d # |.|.|.|.|.|.|.|.|.|.|.|.|.|.|.",
"|.|.|.|.|.|.|.|.|.|.|.|.|.|.|.# d C._.).R.)./.W.).).)./.).W.).).I.d # |.|.|.|.|.|.|.|.|.|.|.|.|.|.|.",
"|.|.|.|.|.|.|.|.|.|.|.|.|.|.|.# d I.'.).).).).).).).).(.)._._.'.I.d # |.|.|.|.|.|.|.|.|.|.|.|.|.|.|.",
"|.|.|.|.|.|.|.|.|.|.|.|.|.|.|.# d M.)././.R./.R.R.U.U.U.U.U./.).V.d # |.|.|.|.|.|.|.|.|.|.|.|.|.|.|.",
"|.|.|.|.|.|.|.|.|.|.|.|.|.|.|.# i 7.v.c.B.U.Y.b.v.0.c.c.c.0.c.v.7.i @ |.|.|.|.|.|.|.|.|.|.|.|.|.|.|.",
"|.|.|.|.|.|.|.|.|.|.|.|.|.|.|.# 1 =.<.,.0.G.B.5.<.<.<.<.<.<.<.<.=.1 % |.|.|.|.|.|.|.|.|.|.|.|.|.|.|.",
"|.|.|.|.|.|.|.|.|.|.|.|.|.|.|.@ 8 D *.&.,.0.0.,.&.H I I U U I U D 8 + + |.|.|.|.|.|.|.|.|.|.|.|.|.|.",
"|.|.|.|.|.|.|.|.|.|.|.|.|.|.|.@ 9 A ! -.>.,.,.>.;.R ' ' ' | | ] A q # + + |.|.|.|.|.|.|.|.|.|.|.|.|.",
"|.|.|.|.|.|.|.|.|.|.|.|.|.|.|.@ q Z | W 4.2.1.3.W ' ` ` ] ] { ] _ l q * + + |.|.|.|.|.|.|.|.|.|.|.|.",
"|.|.|.|.|.|.|.|.|.|.|.|.|.|.|.@ q Z [ ' X.u.t.X.' ] ] ] ] ] ] ] ] _ V q @ + + |.|.|.|.|.|.|.|.|.|.|.",
"|.|.|.|.|.|.|.|.|.|.|.|.|.|.|.@ 9 Z { ` X.r.r. .` ` ] ] ] ] ] ] ] ] _ l 9 * + + |.|.|.|.|.|.|.|.|.|.",
"|.|.|.|.|.|.|.|.|.|.|.|.|.|.|.@ 9 Z ] ] ! 4.4.| ` ] ] ] ] ] ] ] ] ] ] ' V q # o |.|.|.|.|.|.|.|.|.|.",
"|.|.|.|.|.|.|.|.|.|.|.|.|.|.|.@ q Z } } ! :.;.T ` ] ] ] ] ] ] ] ] ] } } ] j & + |.|.|.|.|.|.|.|.|.|.",
"|.|.|.|.|.|.|.|.|.|.|.|.|.|.|.@ 9 Z } [ R :.*.T ` ] ] ] ] ] ] ] ] ] ] } _ w + + |.|.|.|.|.|.|.|.|.|.",
"|.|.|.|.|.|.|.|.|.|.|.|.|.|.|.+ ; k b l x u u v b l l l l l l l l l l b k 7 @ + |.|.|.|.|.|.|.|.|.|.",
"|.|.|.|.|.|.|.|.|.|.|.|.|.|.|.@ & - * - > > * , - - - - - - - - - - - - - & @ + |.|.|.|.|.|.|.|.|.|.",
"|.|.|.|.|.|.|.|.|.|.|.|.|.|.|.+ + + + + O O O O O O O O O O O O O O + O o + + + |.|.|.|.|.|.|.|.|.|."
};
