/* XPM */
static char *_e706f7adbed45b2a1059e96232d0fdfTgbPuDhneRoB8tpo[] = {
/* columns rows colors chars-per-pixel */
"50 50 123 2 ",
"   c None",
".  c DimGray",
"X  c #6A6A6A",
"o  c #727272",
"O  c gray46",
"+  c #767676",
"@  c #777777",
"#  c #797979",
"$  c #7B7B7B",
"%  c #7C7C7C",
"&  c gray49",
"*  c #7E7E7E",
"=  c gray50",
"-  c #808080",
";  c #818181",
":  c gray51",
">  c #838383",
",  c #848484",
"<  c gray52",
"1  c #868686",
"2  c gray53",
"3  c #888888",
"4  c #898989",
"5  c #8B8B8B",
"6  c gray55",
"7  c #8D8D8D",
"8  c #8E8E8E",
"9  c gray56",
"0  c #909090",
"q  c gray57",
"w  c #929292",
"e  c #939393",
"r  c gray58",
"t  c #959595",
"y  c gray59",
"u  c #979797",
"i  c #989898",
"p  c gray60",
"a  c #9A9A9A",
"s  c #9B9B9B",
"d  c gray61",
"f  c #9D9D9D",
"g  c gray62",
"h  c #9F9F9F",
"j  c #A0A0A0",
"k  c gray63",
"l  c #A2A2A2",
"z  c gray64",
"x  c #A4A4A4",
"c  c #A5A5A5",
"v  c gray65",
"b  c #A7A7A7",
"n  c gray66",
"m  c #A9A9A9",
"M  c #AAAAAA",
"N  c gray67",
"B  c #ACACAC",
"V  c gray68",
"C  c #AEAEAE",
"Z  c #AFAFAF",
"A  c gray69",
"S  c #B1B1B1",
"D  c #B2B2B2",
"F  c gray70",
"G  c #B4B4B4",
"H  c gray71",
"J  c #B6B6B6",
"K  c #B7B7B7",
"L  c gray72",
"P  c #B9B9B9",
"I  c gray73",
"U  c #BBBBBB",
"Y  c #BCBCBC",
"T  c gray74",
"R  c gray",
"E  c gray75",
"W  c #C0C0C0",
"Q  c #C1C1C1",
"!  c gray76",
"~  c #C3C3C3",
"^  c gray77",
"/  c #C5C5C5",
"(  c #C6C6C6",
")  c gray78",
"_  c #C8C8C8",
"`  c gray79",
"'  c #CACACA",
"]  c #CBCBCB",
"[  c gray80",
"{  c #CDCDCD",
"}  c #CECECE",
"|  c gray81",
" . c #D0D0D0",
".. c gray82",
"X. c #D2D2D2",
"o. c LightGray",
"O. c gray83",
"+. c #D5D5D5",
"@. c gray84",
"#. c #D7D7D7",
"$. c #D8D8D8",
"%. c gray85",
"&. c #DADADA",
"*. c gray86",
"=. c gainsboro",
"-. c #DDDDDD",
";. c gray87",
":. c #DFDFDF",
">. c gray88",
",. c #E1E1E1",
"<. c #E2E2E2",
"1. c gray89",
"2. c #E4E4E4",
"3. c gray90",
"4. c #E6E6E6",
"5. c #E7E7E7",
"6. c gray91",
"7. c #E9E9E9",
"8. c #EAEAEA",
"9. c gray92",
"0. c #ECECEC",
"q. c gray93",
"w. c #EEEEEE",
/* pixels */
";.3.  1.3.    3.3.  3.    ' #.    1.1.  3.1.            1.T 3.1.*.1.*.;.1.3.1.7.3.3.3.1.1.H 1.3.3.7.",
";.          7.        1.  '                   ;.          U   1.  *.                    3.S 3.7.7.  ",
"          1.              {               *.    1.        U 1.              1.#.        7.U 3.w.7.3.",
"        3.7.              '           #.#.*.#.            U #.      ;.      ;.            T w.3.7.3.",
"^ T H n S Z H U H H Z   S ^ S d n y y y k d n v d v w v w S p 9 p d p k p 5 ; 5 5 d p y v S d d d w ",
";.;.1.*.*.{ ;.1.;.3.1.1.1.1.1.;.1.*.1.#.;.1.#.*.1.1.1.;.3.;.#.1.;.1.3.3.#.#.*.*.;.*.*.;.;.*.;.*.#.1.",
"          Q                                 *.*.*.      ;.                #.1.  1.      *.3.#.1.1.7.",
"          ^ 1.                    3.    *.;.X.  ;.    *.                  { #.;.*.X.*.1.#.3.1.#.;.3.",
"          #.                        #.      #.    *.                  1.*.^ ' 3.      ;.#.*.3.7.;.  ",
"          #.3.                              ;.    ;.              *.*.*.*.' X.      1.  ;.  3.    1.",
"9 w p d d v H v v k v k S Z U Z d S H S Q U ^ n Z T Z Q T T Q U H Z Z S Z Z Q T n p d w p d d k d k ",
"                          T                               ^           *.  #.  #.;.    1.#.X.    7.  ",
"                          Q                               {             ;.          1.3.  #.1.;.w.  ",
"                          T 1.                            {                       *.      {     3.  ",
"                          ^ ;.                            {                       #.*.  #.#.  7.3.  ",
"5 y & & 5 ; y 1 1 & 1 5 ; k ; 1 9 ; w 9 1 w 9 9 y 1 ; # X U ; & & # @ # 1 o X 5 & ; @ 5 & d & 5 ; ; ",
"    ;.;.    3.  ;.1.  1.          3.  1.    *.3.  1.    1.  ;.    3.  ;.  T 3.;.;.1.3.;.1.  1.3.;.3.",
"                                            #.                            S             7.;.1.    3.",
"            ;.                              #.                        7.  S 1.            ;.      1.",
"            *.                            ;.#.                            n         ;.      1.      ",
"            #.                              *.                    ;.  ;.  v X.*.#.    X.  X.{ { { #.",
"S v n Z T H X.S U H Q Q T U Q T U ' { { T ^ X.X.{ X.X.X.;.{ { #.*.X.X.{ { X.{ X.{ { #.*.X.*.*.;.1.*.",
"                          v                               *.                            *.3.;.      ",
"                          k                               {                             *.          ",
"                          Z                               X.        *.                  *.3.        ",
"                          k                     {   {   ;.X.                ^ Q   '     T { ^ ^ U U ",
"T ' Q ^ U ' ' Q T { X.#.#.;.;.{ *.;.;.*.;.;.*.*.;.3.*.;.1.3.;.;.1.;.1.1.;.T ;.1.*.*.3.1.3.3.3.3.;.3.",
"            '                 #.            *.                            U         ;.              ",
"            ^                               ;.                      1.    Q     *.                  ",
"            ' *.*.                          ;.                            H                         ",
"            ^                               ;.                            T                   *.    ",
"1 w w 1 9 ; v 9 w p k d n k Q U Z Z U H U Q ^ T S Z Z H U T T T ^ Q ^ ^ ' X.^ ^ { ' #.X.{ ' ' #.#.#.",
"                          n                     *.        1.  *.                        {       1.7.",
"                ;.        n               ;.              1.1.1.                        Q           ",
"                          Z                             1.*.1.                          Q     7.    ",
"          1.              n                               ;.                            U         3.",
"9 # 9 5 1 w 9 1 & 5 1 & w p & @ @ 1 ; 5 p d y v v p v k k H 9 9 w y y d y p k w 1 p d p U n Z n n Z ",
"  ;.    3.  w     3.3.                  1.3.*.                        7.  Q                         ",
"            v                             ;.*.                            Q                   7.    ",
"            w                             *.X.                    *.      {                         ",
"            k     3.                      1.*.3.1.                1.  3.  ^                         ",
"9 w 9 5 9 p v w w k v v d d v d n d n H U H Q n S U H U ^ Z Z U U Q { U ^ X.^ { { ' ' ' H { X.X.X.{ ",
"                    1.    Z 3.*.                        #.;.1.                          U       3.3.",
"                          k                             X.1.                        w.  ^   3.    7.",
"                          Z                               1.                            ' 7.        ",
"                          n                             #.1.              '   X.X.' Q ^ ' U Q U T S ",
"k Z k Z n k n T Q ^ ^ ^ U ' ' ' ' ' ^ X.X.*.X.^ ^ #.X.#.*.;.*.;.' ;.;.*.1.;.1.;.;.;.;.1.;.1.*.;.1.1.",
"            w                               ;.    U     1.w.    7.        3.          w.            ",
"            v                               ;.      w.                    1.          1.          7.",
"            d                               X.                            7.                        "
};
