/* XPM */
static char *c34e54244ff54aade7e5df7b767564d5qmGEXZ48gyy3uv7w[] = {
/* columns rows colors chars-per-pixel */
"50 50 73 1 ",
"  c None",
". c black",
"X c #020100",
"o c #020101",
"O c #030101",
"+ c #040101",
"@ c #0F0A06",
"# c #0B0B0B",
"$ c #140504",
"% c #120C08",
"& c #131313",
"* c gray8",
"= c #24180F",
"- c #3D110E",
"; c #352316",
": c #3C2819",
"> c #403736",
", c #4B403F",
"< c #754E31",
"1 c gray25",
"2 c #424040",
"3 c #84241D",
"4 c #B73228",
"5 c #C5362C",
"6 c #D83B30",
"7 c #DB3C31",
"8 c #E03E32",
"9 c #E53F33",
"0 c #855938",
"q c #EF4235",
"w c #F44336",
"e c #F54336",
"r c #F44337",
"t c #F54337",
"y c #F44436",
"u c #F54436",
"i c #F44437",
"p c #F54437",
"a c #F64437",
"s c #F54438",
"d c #F44639",
"f c #F34A39",
"g c #F5483A",
"h c #B4794C",
"j c #F5574C",
"k c #EE6648",
"l c #EE6B4A",
"z c #EF6B4B",
"x c #ED6F4C",
"c c #F66C62",
"v c #CF8A57",
"b c #D8905B",
"n c #DB925D",
"m c #E59A61",
"M c #E69A61",
"N c #E79B61",
"B c #E79A62",
"V c gray54",
"C c #F9A19B",
"Z c gray77",
"A c #C8C8C8",
"S c #FDD5D2",
"D c #FDD6D3",
"F c gray90",
"G c gray92",
"H c #F3F3F3",
"J c #FFFBFA",
"K c #FFFCFB",
"L c #FDFDFD",
"P c #FFFCFC",
"I c #FFFDFD",
"U c #FEFEFE",
"Y c white",
/* pixels */
"                                                  ",
"                                                  ",
"                                                  ",
"                                                  ",
"                                                  ",
"                                                  ",
"                                                  ",
"                                                  ",
"                    iwwwwwi                       ",
"                   iiwwwwwii                      ",
"                   wwwwwwwww                      ",
"                 wwwwwwwwwwwwcY                   ",
"                siwwwwwwwwwwwjC                   ",
"                wwwwwwwwwwwwwww                   ",
"              w4..$wwwwwwwww...8w                 ",
"              w5-2,4qwwwww742>-9w                 ",
"            YYwwwJG.7wwwww3.YSwww                 ",
"            fswwwYG.+.++++..YSwwwa                ",
"            swwwwJG.&&$$$*#.YSwwww                ",
"            swwwwYG.FYwwwYV.LSwwww                ",
"           swwwwwJYFPYwwwYHFYSwwwwww              ",
"           wwwwwwJPYPJwwwJYKYSwwwwwa              ",
"           wwwwwwwwwwwwwwwwwwwwwwwww              ",
"           wwwwwwwwwwwwwwwwwwwwwwwwa              ",
"           wwwwwwwwwwwwwwwwwwwwwwwww              ",
"             wwwwwfmMMMMmmBmwwwwww                ",
"             aaaazzmMMMMmmmBzkiaii                ",
"                 BMMMMMMmmBmBB                    ",
"                 BBmMMMMNNmBmB YY                 ",
"                 BmBMMMMNNBmBn ZA                 ",
"                 BBNMMmmNmmBmh...                 ",
"              ...@=NMMMmmm0%%@....                ",
"              ....%bmmmBNb<.......                ",
"              ......vBBmN.........                ",
"                ....;:BBm........                 ",
"                ......NNB........                 ",
"                                                  ",
"                                                  ",
"                                                  ",
"                                                  ",
"                                                  ",
"                                                  ",
"                                                  ",
"                                                  ",
"                                                  ",
"                                                  ",
"                                                  ",
"                                                  ",
"                                                  ",
"                                                  "
};
