/* XPM */
static char *_815308688cc47cbdadc28ec4a2eb9e86jEzuYPm6L9xZGdr[] = {
/* columns rows colors chars-per-pixel */
"50 50 93 2 ",
"   c None",
".  c #18340C",
"X  c #19340C",
"o  c #19350C",
"O  c #19340D",
"+  c #19350D",
"@  c #487F27",
"#  c #3F882A",
"$  c #3F892A",
"%  c #40882A",
"&  c #40892A",
"*  c #41892A",
"=  c #408A2A",
"-  c #458C2B",
";  c #458C2C",
":  c #468C2C",
">  c #478D2C",
",  c #488D2C",
"<  c #488E2C",
"1  c #498E2C",
"2  c #4A8F2C",
"3  c #4A8F2D",
"4  c #4B8F2D",
"5  c #4B902D",
"6  c #4C902D",
"7  c #4D912D",
"8  c #4C912E",
"9  c #4E912E",
"0  c #4E912F",
"q  c #4E922E",
"w  c #4F922E",
"e  c #50922E",
"r  c #50932E",
"t  c #51932E",
"y  c #52942F",
"u  c #53942F",
"i  c #53952F",
"p  c #54952F",
"a  c #55952F",
"s  c #55962F",
"d  c #569630",
"f  c #579730",
"g  c #589730",
"h  c #589830",
"j  c #599830",
"k  c #5B9A31",
"l  c #5C9A31",
"z  c #5D9B31",
"x  c #6F8C2D",
"c  c #609C32",
"v  c #629E33",
"b  c #639E33",
"n  c #7B9F34",
"m  c #8BA938",
"M  c #8EB93D",
"N  c #95B33C",
"B  c #96B33C",
"V  c #90BA3E",
"C  c #91BB3E",
"Z  c #93BC3F",
"A  c #95BE3F",
"S  c #96BE3F",
"D  c #97BF40",
"F  c #98BF40",
"G  c #99C040",
"H  c #9BC141",
"J  c #9BC241",
"K  c #9CC241",
"L  c #9DC241",
"P  c #9DC341",
"I  c #9FC441",
"U  c #9FC442",
"Y  c #A1C542",
"T  c #A2C642",
"R  c #A3C643",
"E  c #A4C743",
"W  c #A5C743",
"Q  c #A5C843",
"!  c #A7C943",
"~  c #A6C844",
"^  c #A7C944",
"/  c #A8C944",
"(  c #A9CA44",
")  c #AACB44",
"_  c #ABCB44",
"`  c #ABCA45",
"'  c #ACCC45",
"]  c #AECD45",
"[  c #AFCE46",
"{  c #B0CE46",
"}  c #B0CF46",
"|  c #B1CF46",
" . c #B2CF46",
/* pixels */
"                                                                                                    ",
"                                                                                                    ",
"                                                                                                    ",
"                                                                                                    ",
"                                                                                                    ",
"                                                                                                    ",
"                                                                                                    ",
"                                                                                                    ",
"                                                                                                    ",
"                  X X X X X X X + + + + + + + + + + + + X + + + X X X X + X X X X                   ",
"                  X x m m m m m m m m m m m m m m m m m m m m m m m m m m m m x +                   ",
"                  X % h f g g Q  .} } } } j g g h h h h f f f h f f f f h h h % +                   ",
"                  + n L L 0 # W }  .}  .} * L L # # # # # # # # $ > D 4 M q U n +                   ",
"                  + m  . .t $ Q  .}  .} } * } } # # # # # # # # $ & f Z z E } m +                   ",
"                  + m  . .r $ Q }  .}  .} * } } # # # # # # # # & > G h G z | m +                   ",
"                  + m  . .0 $ Q  .}  .} } * } } # # # # # # # # & & r H h ^ | m +                   ",
"                  X m | | 0 $ Q }  .}  . .& [ [ $ # # # # # # # # 1 L s S z | m X                   ",
"                  X m | | t # Q  .}  .}  .&  . .# # # # # # # # # # t L s ( [ m X                   ",
"                  X m | | r # W }  .}  . .$ [ | # # # # # # # # $ 1 Y r L j  .m X                   ",
"                  X m | | r $ Q  .}  .}  .&  .| # # # # # # # # $ $ 0 U r  . .m X                   ",
"                  + m | | r $ Q }  . . . .& [ | # # # # # # # # $ 1 Y t L f | m +                   ",
"                  + m | | r $ W  .}  . . .&  .| # # # # # # # # $ $ 0 Y r [ | m +                   ",
"                  + m | | r $ Q }  .}  . .& [ | # # # # # # # # $ : E 0 U s | m +                   ",
"                  + + + . . . . + + + + X + X X . . . . . . . . . . . + X X X X +                   ",
"                      + . . . . . . . . . . . + . . . . . . . . X X X . . . +                       ",
"                      X N  . .4 $ ) | |  . .$ }  .# # # # # # # - ( 4  . .N X                       ",
"                      . N  . .4 $ ( | | [ | & |  .# # # # # # # & 1 Q 0 [ N .                       ",
"                      . N [ [ 5 $ ( | | | | $ } [ $ # # # # # # : Q 7 |  .N .                       ",
"                      + N  . .4 $ ( | | | | & }  .# # # # # # # $ 1 Y r  .N X                       ",
"                      X N [  .4 # ( | | | | & |  .# # # # # # # : Q 0 _ [ N +                       ",
"                      . N  . .4 & ) | | | | & [ [ $ # # # # # # $ 0 Y t  .N +                       ",
"                      . N [  .4 $ _ | | | | & [  .# # # # # # # : E 0 )  .N X                       ",
"                      X N | | 5 $ (  . .[ | & | | $ # # # # # # # t U f  .N .                       ",
"                      + N | | 5 & (  . .| | $ } | $ # # # # # # - L t ^  .N .                       ",
"                      X N [ | 5 $ ( | | | | $ }  .# # # # # # # # d L f [ N X                       ",
"                      X N  . .5 $ ) | [ | | & |  .# # # # # # # * H f E  .N +                       ",
"                      . N | | 5 $ (  . .| | $ } [ $ # # # # # # & g H z  .N +                       ",
"                      + N |  .4 $ (  . .| | & }  .# # # # # # # * D j Y [ N X                       ",
"                      X N |  .4 $ ` | | | | & |  .# # # # # # # * z C v  .N +                       ",
"                      + N | [ 4 $ ) | | | | $ | [ $ # # # # # # > C v F  .N .                       ",
"                      X B  . .0 $ `  . . . .& |  .$ $ $ $ $ $ $ $ 4 ^ 0  .B X                       ",
"                                                                                                    ",
"                                                                                                    ",
"                                                                                                    ",
"                                                                                                    ",
"                                                                                                    ",
"                                                                                                    ",
"                                                                                                    ",
"                                                                                                    ",
"                                                                                                    "
};
